<svg width="603" height="513" viewBox="0 0 603 513" fill="none" xmlns="http://www.w3.org/2000/svg">
<path d="M99.1374 458.539C62.0551 426.475 -36.8568 342.168 14.4594 277.294C26.1707 262.487 50.2494 262.998 62.9765 249.055C78.9843 231.519 70.8974 204.015 64.7765 181.075C57.3223 153.131 54.4073 122.776 64.6499 95.7308C74.8927 68.6855 100.931 46.1949 129.833 47.2282C146.845 47.8362 162.485 56.0788 177.993 63.0975C203.203 74.5095 230.496 83.2135 258.104 81.3375C294.047 78.8962 326.671 58.9082 362.343 53.8708C408.215 47.3922 455.539 67.1855 488.096 100.144C520.653 133.102 539.448 177.872 547.131 223.558C554.841 269.411 551.828 317.515 534.885 360.816C517.943 404.116 486.569 442.273 445.515 464.103L99.1374 458.539" fill="#B0E5E9"/>
<path d="M246.785 512.432C215.948 512.432 189.104 511.325 179.095 507.999C174.685 506.535 178.155 502.587 181.947 500.384C186.337 497.835 184.107 492.691 178.545 492.541C132.999 491.324 94.1354 489.217 47.9078 486.75C37.4037 486.189 10.0797 483.352 8.55154 476.957C6.97701 470.367 43.7521 466.084 61.1999 466.084C61.6922 466.084 62.1693 466.087 62.6292 466.093L78.7589 465.975C82.039 467.196 85.6193 467.664 89.2953 467.664C94.2942 467.664 99.4708 466.799 104.309 465.788C104.313 465.788 104.316 465.787 104.319 465.787L409.885 463.531L445.515 464.103C446.041 463.823 446.565 463.541 447.088 463.256L448.429 463.247C451.651 464.339 455.024 465.092 458.352 465.788C463.192 466.799 468.368 467.664 473.368 467.664C479.269 467.664 484.923 466.459 489.484 462.864C491.265 462.827 493.044 462.808 494.825 462.808C512.335 462.808 529.815 464.636 546.564 468.233C554.857 470.015 564.737 474.691 561.176 480.98C550.473 499.886 408.921 506.971 348.541 509.772C322.025 511.003 281.828 512.432 246.785 512.432Z" fill="#C0DAD7"/>
<path d="M445.515 464.103L409.885 463.531L447.088 463.256C446.565 463.541 446.041 463.823 445.515 464.103Z" fill="url(#paint0_linear)"/>
<path d="M109.595 462.808H462.853V126.479H109.595V462.808Z" fill="#F9B04D"/>
<path d="M433.627 438.436H129.036C124.612 430.471 113.181 426.252 111.533 417.057C111.397 416.292 111.336 415.531 111.336 414.771C111.336 410.125 113.604 405.56 114.561 400.908C114.896 399.279 115.06 397.62 115.059 395.96C115.059 390.239 113.117 384.512 109.595 380.004V183.752V230.363H462.853V255.649H270.227V403.42H448.728H270.227V415.283H451.317C451.295 415.873 451.235 416.464 451.128 417.057C449.481 426.252 438.051 430.471 433.627 438.436" fill="url(#paint1_linear)"/>
<path d="M109.595 462.808H462.853V438.436H109.595V462.808Z" fill="#FCDAA7"/>
<path d="M109.595 230.363H462.853V126.479H109.595V230.363Z" fill="#F39128"/>
<path d="M87.801 183.752C86.727 201.584 102.609 216.097 120.876 216.097C139.143 216.097 153.951 201.616 153.951 183.752C153.951 165.888 139.143 151.407 120.876 151.407C102.609 151.407 88.8854 165.741 87.801 183.752Z" fill="#D7D9D6"/>
<path d="M153.951 183.752C153.951 201.616 168.759 216.097 187.025 216.097C205.292 216.097 220.1 201.616 220.1 183.752C220.1 165.888 205.292 151.407 187.025 151.407C168.759 151.407 153.951 165.888 153.951 183.752Z" fill="#EA323D"/>
<path d="M220.1 183.752C220.1 201.616 234.908 216.097 253.175 216.097C271.441 216.097 286.249 201.616 286.249 183.752C286.249 165.888 271.441 151.407 253.175 151.407C234.908 151.407 220.1 165.888 220.1 183.752" fill="#D7D9D6"/>
<path d="M286.249 183.752C286.249 201.616 301.057 216.097 319.325 216.097C337.591 216.097 352.399 201.616 352.399 183.752C352.399 165.888 337.591 151.407 319.325 151.407C301.057 151.407 286.249 165.888 286.249 183.752Z" fill="#EA323D"/>
<path d="M352.399 183.752C352.399 201.616 367.208 216.097 385.473 216.097C403.74 216.097 418.549 201.616 418.549 183.752C418.549 165.888 403.74 151.407 385.473 151.407C367.208 151.407 352.399 165.888 352.399 183.752Z" fill="#D7D9D6"/>
<path d="M418.549 183.752C418.549 201.616 433.356 216.097 451.623 216.097C469.891 216.097 484.699 201.616 484.699 183.752C484.699 165.888 469.891 151.407 451.623 151.407C433.356 151.407 418.549 165.888 418.549 183.752Z" fill="#EA323D"/>
<path d="M484.699 183.752H87.8005L97.4094 124.651H477.755L484.699 183.752Z" fill="#F14456"/>
<path d="M87.8005 183.752L97.4094 124.651H162.991L153.951 183.752H87.8005Z" fill="white"/>
<path d="M286.249 183.752V124.651H226.255L220.1 183.752H286.249Z" fill="white"/>
<path d="M352.399 183.752V124.651H412.392L418.549 183.752H352.399" fill="white"/>
<path d="M96.6797 128.101H478.086V108.811H96.6797V128.101Z" fill="#EA323D"/>
<path d="M478.087 113.724H96.6797V108.811H478.087V113.724Z" fill="#F1475C"/>
<path d="M478.087 110.039H96.6797V108.811H478.087V110.039Z" fill="white"/>
<path d="M270.227 403.42H462.853V255.65H270.227V403.42Z" fill="white"/>
<path d="M246.911 454.887H140.001V255.649H246.911V454.887Z" fill="white"/>
<path d="M69.4922 433.591C72.8655 426.241 76.4203 418.748 77.3557 410.715C78.1755 403.681 76.0365 396.348 71.5635 390.857C66.8171 385.032 59.7655 381.399 55.1734 375.451C49.5051 368.11 48.4223 357.508 52.4906 349.172C56.1213 341.732 65.5849 336.215 72.7797 340.312C79.4739 344.124 80.2671 353.357 84.5485 359.761C90.0739 368.029 100.947 370.909 107.88 378.037C113.641 383.963 116.227 392.812 114.561 400.908C113.448 406.32 110.559 411.617 111.533 417.057C113.383 427.373 127.547 431.427 130.312 441.535C132.075 447.979 128.333 454.926 122.949 458.879C117.567 462.833 110.848 464.421 104.309 465.788C93.6297 468.02 81.3067 469.54 72.8718 462.617C72.8718 462.617 59.7161 454.887 69.4922 433.591" fill="#B6BC34"/>
<path d="M88.4401 467.779V467.645H85.9067V467.512H84.7067V467.379H83.6401V467.245H82.9734V467.112H82.3067V466.979H81.6401V466.845H81.1067V466.712H80.5734V466.579H80.1734V466.445H79.6401V466.312H79.3734V466.179H78.9734V466.045H78.5734V465.912H78.1734V465.779H77.9067V465.645H77.6401V465.512H77.3734V465.379H77.1067V465.245H76.8401V465.112H76.5734V464.979H76.1734V464.845H75.9067V464.712H75.7734V464.579H75.5067V464.445H75.2401V464.312H75.1067V464.179H74.8401V464.045H74.7067V463.912H74.4401V463.779H74.3067V463.645H74.0401V463.512H73.9067V463.379H73.6401V463.245H73.5067V463.112H73.2401V462.979H73.1067V462.845H72.9734V462.712H72.7067V462.579H72.5734V462.445H72.3067V462.312H72.1734V462.179H72.0401V462.045H71.9067V461.912H71.6401V461.779H71.5067V461.645H71.3734V461.512H71.2401V461.379H71.1067V461.245H70.9734V461.112H70.8401V460.979H70.7067V460.845H70.5734V460.712H70.4401V460.579H70.3067V460.445H70.1734V460.312H70.0401V460.179H69.9067V459.912H69.7734V459.779H69.6401V459.645H69.5067V459.512H69.3734V459.245H69.2401V459.112H69.1067V458.979H68.9734V458.712H68.8401V458.579H68.7067V458.312H68.5734V458.179H68.4401V457.912H68.3067V457.645H68.1734V457.379H68.0401V457.112H67.9067V456.979H67.7734V456.712H67.6401V456.445H67.5067V456.179H67.3734V455.779H67.2401V455.379H67.1067V455.112H66.9734V454.712H66.8401V454.312H66.7067V453.912H66.5734V453.379H66.4401V452.845H66.3067V452.312H66.1734V451.512H66.0401V450.579H65.9067V447.779H65.7734V447.245H65.9067V445.512H66.0401V444.845H66.3067V444.712H66.7067V444.579H67.1067V444.445H67.6401V444.312H67.9067V444.179H68.3067V444.045H68.7067V443.912H68.9734V443.779H69.3734V443.645H69.6401V443.512H70.0401V443.379H70.3067V443.245H70.5734V443.112H70.8401V442.979H71.1067V442.845H71.3734V442.712H71.6401V442.579H71.9067V442.445H72.1734V442.312H72.3067V442.179H72.5734V442.045H72.7067V441.912H72.8401V441.645H72.9734V441.512H73.1067V441.245H73.2401V440.979H73.3734V440.845H73.5067V440.579H73.6401V440.312H73.7734V440.045H73.9067V439.779H74.0401V439.512H74.1734V439.245H74.3067V438.979H74.4401V438.712H74.5734V438.445H74.7067V438.179H74.8401V437.912H74.9734V437.645H75.1067V437.245H75.2401V436.979H75.3734V436.579H75.5067V436.312H75.6401V436.045H75.7734V435.645H75.9067V435.379H76.0401V434.979H76.1734V434.712H76.3067V434.445H76.4401V433.912H76.5734V433.512H76.7067V433.112H76.8401V432.579H76.9734V432.179H77.1067V431.645H77.2401V431.245H77.3734V430.845H77.5067V430.312H77.6401V429.779H77.7734V429.112H77.9067V428.445H78.0401V427.779H78.1734V427.112H78.3067V426.045H78.5734V426.312H78.7067V426.445H78.8401V426.579H78.9734V426.712H79.1067V426.979H79.2401V427.112H79.3734V427.245H79.5067V427.379H79.6401V427.512H79.7734V427.779H79.9067V427.912H80.0401V428.045H80.1734V428.179H80.3067V428.312H80.4401V428.579H80.5734V428.712H80.7067V428.845H80.8401V428.979H80.9734V429.112H81.1067V429.245H81.2401V429.379H81.3734V429.512H81.5067V429.645H81.6401V429.779H81.7734V429.912H81.9067V430.179H82.0401V430.312H82.1734V430.445H82.3067V430.579H82.4401V430.712H82.5734V430.845H82.7067V430.979H82.8401V431.112H82.9734V431.245H83.1067V431.379H83.2401V431.512H83.3734V431.645H83.5067V431.779H83.6401V431.912H83.7734V432.045H83.9067V432.179H84.0401V432.312H84.1734V432.445H84.3067V432.579H84.4401V432.712H84.5734V432.845H84.7067V432.979H84.8401V433.112H84.9734V433.245H85.2401V433.379H85.3734V433.512H85.5067V433.645H85.6401V433.779H85.7734V433.912H85.9067V434.045H86.0401V434.179H86.1734V434.312H86.3067V434.445H86.4401V434.579H86.5734V434.712H86.7067V434.845H86.8401V434.979H87.1067V435.112H87.2401V435.245H87.3734V435.379H87.5067V435.512H87.6401V435.645H87.7734V435.779H87.9067V435.912H88.0401V436.045H88.3067V436.179H88.4401V436.312H88.5734V436.445H88.7067V436.579H88.8401V436.712H88.9734V436.845H89.1067V436.979H89.3734V437.112H89.5067V437.245H89.6401V437.379H89.7734V437.512H89.9067V437.645H90.0401V437.779H90.1734V437.912H90.4401V438.045H90.5734V438.179H90.7067V438.312H90.8401V438.445H90.9734V438.579H91.1067V438.712H91.2401V438.845H91.5067V438.979H91.6401V439.112H91.7734V439.245H91.9067V439.379H92.0401V439.512H92.3067V439.645H92.4401V439.779H92.5734V439.912H92.7067V440.045H92.8401V440.179H92.9734V440.312H93.2401V440.445H93.3734V440.579H93.5067V440.712H93.6401V440.845H93.7734V440.979H94.0401V441.112H94.1734V441.245H94.3067V441.379H94.4401V441.512H94.5734V441.645H94.8401V441.779H94.9734V441.912H95.1067V442.045H95.2401V442.179H95.3734V442.312H95.5067V442.445H95.7734V442.579H95.9067V442.712H96.0401V442.845H96.1734V442.979H96.3067V443.112H96.5734V443.245H96.7067V443.379H96.8401V443.512H96.9734V443.645H97.1067V443.779H97.3734V443.912H97.5067V444.045H97.6401V444.179H97.7734V444.312H97.9067V444.445H98.1734V444.579H98.3067V444.712H98.4401V444.845H98.5734V444.979H98.7067V445.112H98.9734V445.245H99.1067V445.379H99.2401V445.512H99.3734V445.645H99.5067V445.779H99.6401V445.912H99.9067V446.045H100.04V446.179H100.173V446.312H100.84V446.179H101.107V446.045H101.24V445.912H101.373V445.645H101.507V445.245H101.373V444.979H101.24V444.845H101.107V444.712H100.84V444.579H100.707V444.445H100.573V444.312H100.44V444.179H100.307V444.045H100.04V443.912H99.9067V443.779H99.7734V443.645H99.6401V443.512H99.5067V443.379H99.3734V443.245H99.1067V443.112H98.9734V442.979H98.8401V442.845H98.7067V442.712H98.5734V442.579H98.3067V442.445H98.1734V442.312H98.0401V442.179H97.9067V442.045H97.7734V441.912H97.5067V441.779H97.3734V441.645H97.2401V441.512H97.1067V441.379H96.9734V441.245H96.7067V441.112H96.5734V440.979H96.4401V440.845H96.3067V440.712H96.1734V440.579H96.0401V440.445H95.7734V440.312H95.6401V440.179H95.5067V440.045H95.3734V439.912H95.2401V439.779H94.9734V439.645H94.8401V439.512H94.7067V439.379H94.5734V439.245H94.4401V439.112H94.1734V438.979H94.0401V438.845H93.9067V438.712H93.7734V438.579H93.6401V438.445H93.5067V438.312H93.2401V438.179H93.1067V438.045H92.9734V437.912H92.8401V437.779H92.7067V437.645H92.5734V437.512H92.3067V437.379H92.1734V437.245H92.0401V437.112H91.9067V436.979H91.7734V436.845H91.6401V436.712H91.3734V436.579H91.2401V436.445H91.1067V436.312H90.9734V436.179H90.8401V436.045H90.7067V435.912H90.5734V435.779H90.3067V435.645H90.1734V435.512H90.0401V435.379H89.9067V435.245H89.7734V435.112H89.6401V434.979H89.5067V434.845H89.2401V434.712H89.1067V434.579H88.9734V434.445H88.8401V434.312H88.7067V434.179H88.5734V434.045H88.4401V433.912H88.3067V433.779H88.1734V433.645H87.9067V433.512H87.7734V433.379H87.6401V433.245H87.5067V433.112H87.3734V432.979H87.2401V432.845H87.1067V432.712H86.9734V432.579H86.8401V432.445H86.7067V432.312H86.5734V432.179H86.3067V432.045H86.1734V431.912H86.0401V431.779H85.9067V431.645H85.7734V431.512H85.6401V431.379H85.5067V431.245H85.3734V431.112H85.2401V430.979H85.1067V430.845H84.9734V430.712H84.8401V430.579H84.7067V430.445H84.5734V430.312H84.4401V430.179H84.3067V430.045H84.1734V429.912H84.0401V429.779H83.9067V429.645H83.7734V429.512H83.6401V429.379H83.5067V429.245H83.3734V428.979H83.2401V428.845H83.1067V428.712H82.9734V428.579H82.8401V428.445H82.7067V428.312H82.5734V428.179H82.4401V428.045H82.3067V427.912H82.1734V427.779H82.0401V427.645H81.9067V427.512H81.7734V427.379H81.6401V427.112H81.5067V426.979H81.3734V426.845H81.2401V426.712H81.1067V426.445H80.9734V426.312H80.8401V426.179H80.7067V426.045H80.5734V425.779H80.4401V425.645H80.3067V425.512H80.1734V425.245H80.0401V425.112H79.9067V424.979H79.7734V424.845H79.6401V424.579H79.5067V424.445H79.3734V424.312H79.2401V424.179H79.1067V423.912H78.9734V423.779H78.8401V423.512H78.7067V423.379H78.5734V422.979H78.7067V419.912H78.5734V418.179H78.4401V416.845H78.3067V415.912H78.1734V415.245H78.0401V414.579H77.9067V413.912H77.7734V413.379H77.6401V412.845H77.5067V412.312H77.3734V411.779H77.2401V410.445H77.3734V408.712H77.5067V406.845H77.3734V405.112H77.2401V404.045H77.1067V403.112H76.9734V402.445H76.8401V401.912H76.7067V401.245H76.5734V400.712H76.4401V400.312H76.3067V399.912H76.1734V399.512H76.0401V398.979H75.9067V398.712H75.7734V398.312H75.6401V397.912H75.5067V397.645H75.3734V397.379H75.2401V396.979H75.1067V396.712H74.9734V396.445H74.8401V396.179H74.7067V395.912H74.5734V395.512H74.4401V395.245H74.3067V395.112H74.1734V394.845H74.0401V394.579H73.9067V394.312H73.7734V394.179H73.6401V393.912H73.5067V393.645H73.3734V393.512H73.2401V393.245H73.1067V392.979H72.9734V392.845H72.8401V392.579H72.7067V392.445H72.5734V392.312H72.4401V392.045H72.3067V391.912H72.1734V391.645H72.0401V391.512H71.9067V391.379H71.7734V391.245H71.6401V390.979H71.5067V390.845H71.3734V390.712H71.2401V390.579H71.1067V390.312H70.9734V390.179H70.8401V390.045H70.7067V389.912H70.5734V389.779H70.4401V389.645H70.3067V389.512H70.1734V389.379H70.0401V389.245H69.9067V389.112H69.7734V388.979H69.6401V388.845H69.5067V388.712H69.3734V388.579H69.2401V388.445H69.1067V388.312H68.9734V388.179H68.8401V388.045H68.7067V387.912H68.5734V387.779H68.4401V387.645H68.3067V387.512H68.1734V387.379H68.0401V387.245H67.9067V387.112H67.7734V386.979H67.6401V386.845H67.5067V386.712H67.2401V386.579H67.1067V386.445H66.9734V386.312H66.8401V386.179H66.7067V386.045H66.5734V385.912H66.3067V385.779H66.1734V385.645H66.0401V385.512H65.9067V385.379H65.7734V385.245H65.6401V385.112H65.3734V384.979H65.2401V384.845H65.1067V384.712H64.9734V384.579H64.7067V384.445H64.5734V384.312H64.4401V384.179H64.3067V384.045H64.1734V383.912H63.9067V383.779H63.7734V383.645H63.6401V383.512H63.5067V383.379H63.2401V383.245H63.1067V383.112H62.9734V382.979H62.8401V382.845H62.7067V382.712H62.4401V382.579H62.3067V382.445H62.1734V382.312H62.0401V382.179H61.9067V382.045H61.6401V381.912H61.5067V381.779H61.3734V381.645H61.2401V381.512H60.9734V381.379H60.8401V381.245H60.7067V381.112H60.5734V380.979H60.4401V380.845H60.3067V380.712H60.1734V380.579H59.9067V380.445H59.7734V380.312H59.6401V380.179H59.5067V380.045H59.3734V379.912H59.2401V379.779H59.1067V379.645H58.8401V379.512H58.7067V379.379H58.5734V379.245H58.4401V379.112H58.3067V378.979H58.1734V378.845H58.0401V378.712H57.9067V378.579H57.7734V378.445H57.6401V378.312H57.5067V378.179H57.3734V378.045H57.2401V377.912H57.1067V377.779H56.9734V377.645H56.8401V377.512H56.7067V377.379H56.5734V377.112H56.4401V376.979H56.3067V376.845H56.1734V376.712H56.0401V376.579H55.9067V376.445H55.7734V376.312H55.6401V376.179H55.5067V375.912H55.3734V375.779H55.2401V375.645H55.1067V375.379H54.9734V375.245H54.8401V375.112H54.7067V374.845H54.5734V374.712H54.4401V374.445H54.3067V374.312H54.1734V374.045H54.0401V373.912H53.9067V373.645H53.7734V373.379H53.6401V373.245H53.5067V372.979H53.3734V372.712H53.2401V372.579H53.1067V372.312H52.9734V372.045H52.8401V371.779H52.7067V371.379H52.5734V371.112H52.4401V370.845H52.3067V370.579H52.1734V370.312H52.0401V370.045H51.9067V369.779H51.7734V369.379H51.6401V368.979H51.5067V368.579H51.3734V368.179H51.2401V367.779H51.1067V367.245H50.9734V366.845H50.8401V366.445H50.7067V365.912H50.5734V365.112H50.4401V364.312H50.3067V363.512H50.1734V362.579H50.0401V357.912H50.1734V356.579H50.3067V355.645H50.4401V354.979H50.5734V354.445H50.7067V353.912H50.8401V353.245H50.9734V352.845H51.1067V352.312H51.2401V351.912H51.3734V351.512H51.5067V351.112H51.6401V350.845H51.7734V350.445H51.9067V350.045H52.0401V349.779H52.1734V349.512H52.3067V349.245H52.4401V348.979H52.5734V348.712H52.7067V348.445H52.8401V348.179H52.9734V348.045H53.1067V347.779H53.2401V347.512H53.3734V347.379H53.5067V347.112H53.6401V346.979H53.7734V346.712H53.9067V346.579H54.0401V346.445H54.1734V346.179H54.3067V346.045H54.4401V345.912H54.5734V345.645H54.7067V345.512H54.8401V345.379H54.9734V345.112H55.1067V344.979H55.2401V344.845H55.3734V344.712H55.5067V344.579H55.6401V344.445H55.7734V344.312H55.9067V344.179H56.0401V344.045H56.1734V343.912H56.3067V343.779H56.4401V343.645H56.5734V343.512H56.7067V343.379H56.8401V343.245H56.9734V343.112H57.2401V342.979H57.3734V342.845H57.5067V342.712H57.6401V342.579H57.9067V342.445H58.0401V342.312H58.1734V342.179H58.3067V342.045H58.5734V341.912H58.7067V341.779H58.9734V341.645H59.1067V341.512H59.3734V341.379H59.5067V341.245H59.7734V341.112H60.0401V340.979H60.1734V340.845H60.4401V340.712H60.7067V340.579H60.9734V340.445H61.2401V340.312H61.5067V340.179H61.9067V340.045H62.1734V339.912H62.4401V339.779H62.7067V339.645H63.2401V339.512H63.6401V339.379H64.1734V339.245H64.7067V339.112H65.2401V338.979H66.4401V338.845H68.5734V338.979H69.3734V339.112H70.1734V339.245H70.5734V339.379H70.9734V339.512H71.2401V339.645H71.6401V339.779H72.0401V339.912H72.3067V340.045H72.5734V340.179H72.8401V340.312H73.1067V340.445H73.3734V340.579H73.5067V340.712H73.6401V340.845H73.9067V340.979H74.0401V341.112H74.1734V341.245H74.3067V341.379H74.5734V341.512H74.7067V341.645H74.8401V341.779H74.9734V341.912H75.1067V342.045H75.2401V342.179H75.3734V342.312H75.5067V342.445H75.6401V342.579H75.7734V342.712H75.9067V342.979H76.0401V343.112H76.1734V343.245H76.3067V343.379H76.4401V343.512H76.5734V343.645H76.7067V343.779H76.8401V344.045H76.9734V344.179H77.1067V344.445H77.2401V344.579H77.3734V344.845H77.5067V345.112H77.6401V345.245H77.7734V345.512H77.9067V345.779H78.0401V345.912H78.1734V346.179H78.3067V346.312H78.4401V346.579H78.5734V346.979H78.7067V347.245H78.8401V347.512H78.9734V347.779H79.1067V348.045H79.2401V348.312H79.3734V348.579H79.5067V348.845H79.6401V349.112H79.7734V349.512H79.9067V349.779H80.0401V350.179H80.1734V350.445H80.3067V350.712H80.4401V351.112H80.5734V351.379H80.7067V351.779H80.8401V352.045H80.9734V352.312H81.1067V352.712H81.2401V352.979H81.3734V353.379H81.5067V353.645H81.6401V354.045H81.7734V354.312H81.9067V354.579H82.0401V354.979H82.1734V355.245H82.3067V355.512H82.4401V355.779H82.5734V356.045H82.7067V356.312H82.8401V356.579H82.9734V356.979H83.1067V357.245H83.2401V357.512H83.3734V357.645H83.5067V357.912H83.6401V358.179H83.7734V358.445H83.9067V358.712H84.0401V358.845H84.1734V359.112H84.3067V359.379H84.4401V359.512H84.5734V359.779H84.7067V359.912H84.8401V360.179H84.9734V360.312H85.1067V360.579H85.2401V360.712H85.3734V360.845H85.5067V360.979H85.6401V361.112H85.7734V361.245H85.9067V361.512H86.0401V361.645H86.1734V361.779H86.3067V361.912H86.4401V362.045H86.5734V362.179H86.7067V362.445H86.8401V362.579H86.9734V362.712H87.1067V362.845H87.2401V362.979H87.5067V363.112H87.6401V363.245H87.7734V363.379H87.9067V363.512H88.0401V363.645H88.1734V363.779H88.3067V363.912H88.4401V364.045H88.5734V364.179H88.7067V364.312H88.8401V364.445H89.1067V364.579H89.2401V364.712H89.3734V364.845H89.5067V364.979H89.6401V365.112H89.7734V365.245H90.0401V365.379H90.1734V365.512H90.3067V365.645H90.5734V365.779H90.7067V365.912H90.8401V366.045H91.1067V366.179H91.2401V366.312H91.3734V366.445H91.6401V366.579H91.7734V366.712H92.0401V366.845H92.1734V366.979H92.3067V367.112H92.5734V367.245H92.7067V367.379H92.9734V367.512H93.1067V367.645H93.3734V367.779H93.5067V367.912H93.7734V368.045H93.9067V368.179H94.1734V368.312H94.4401V368.445H94.5734V368.579H94.8401V368.712H94.9734V368.845H95.2401V368.979H95.3734V369.112H95.6401V369.245H95.7734V369.379H96.0401V369.512H96.3067V369.645H96.4401V369.779H96.7067V369.912H96.9734V370.045H97.1067V370.179H97.3734V370.312H97.6401V370.445H97.7734V370.579H98.0401V370.712H98.1734V370.845H98.4401V370.979H98.7067V371.112H98.8401V371.245H99.1067V371.379H99.2401V371.512H99.5067V371.645H99.7734V371.779H99.9067V371.912H100.173V372.045H100.307V372.179H100.573V372.312H100.707V372.445H100.973V372.579H101.24V372.712H101.373V372.845H101.64V372.979H101.773V373.112H102.04V373.245H102.173V373.379H102.44V373.512H102.573V373.645H102.707V373.779H102.973V373.912H103.107V374.045H103.24V374.179H103.507V374.312H103.64V374.445H103.907V374.579H104.04V374.712H104.173V374.845H104.44V374.979H104.573V375.112H104.707V375.245H104.973V375.379H105.107V375.512H105.24V375.645H105.507V375.779H105.64V375.912H105.773V376.045H105.907V376.179H106.04V376.312H106.173V376.445H106.44V376.579H106.573V376.712H106.707V376.845H106.84V376.979H106.973V377.112H107.107V377.245H107.24V377.379H107.373V377.512H107.507V377.645H107.64V377.779H107.773V377.912H107.907V378.045H108.04V378.179H108.173V378.312H108.307V378.445H108.44V378.579H108.573V378.712H108.707V378.845H108.84V378.979H108.973V379.245H109.107V379.379H109.24V379.512H109.373V379.645H109.507V379.912H109.64V380.045H109.773V380.179H109.907V380.445H110.04V380.579H110.173V380.712H110.307V380.979H110.44V381.112H110.573V381.379H110.707V381.512H110.84V381.779H110.973V381.912H111.107V382.179H111.24V382.312H111.373V382.579H111.507V382.845H111.64V383.112H111.773V383.245H111.907V383.512H112.04V383.779H112.173V384.045H112.307V384.312H112.44V384.579H112.573V384.845H112.707V385.112H112.84V385.512H112.973V385.779H113.107V386.045H113.24V386.445H113.373V386.845H113.507V387.245H113.64V387.512H113.773V387.912H113.907V388.312H114.04V388.712H114.173V389.379H114.307V389.912H114.44V390.445H114.573V391.112H114.707V391.779H114.84V392.979H114.973V394.179H115.107V397.912H114.973V399.112H114.84V400.179H114.707V400.979H114.573V401.512H114.44V402.045H114.307V402.579H114.173V403.112H114.04V403.512H113.907V404.045H113.773V404.445H113.64V404.979H113.507V405.379H113.373V405.779H113.24V406.179H113.107V406.712H112.973V407.112H112.84V407.512H112.707V407.912H112.573V408.445H112.44V408.845H112.307V409.379H112.173V409.912H112.04V410.445H111.907V410.979H111.773V411.779H111.64V412.712H111.507V413.645H111.373V415.645H111.507V416.845H111.64V417.512H111.773V418.045H111.907V418.445H112.04V418.845H112.173V419.245H112.307V419.512H112.44V419.779H112.573V420.179H112.707V420.445H112.84V420.712H112.973V420.979H113.107V421.245H113.24V421.379H113.373V421.645H113.507V421.912H113.64V422.045H113.773V422.312H113.907V422.445H114.04V422.712H114.173V422.845H114.307V422.979H114.44V423.245H114.573V423.379H114.707V423.512H114.84V423.779H114.973V423.912H115.107V424.045H115.24V424.179H115.373V424.312H115.507V424.445H115.64V424.579H115.773V424.712H115.907V424.979H116.04V425.112H116.173V425.245H116.307V425.379H116.44V425.512H116.573V425.645H116.707V425.779H116.84V425.912H116.973V426.045H117.107V426.179H117.24V426.312H117.373V426.445H117.507V426.579H117.64V426.712H117.773V426.845H117.907V426.979H118.173V427.112H118.307V427.245H118.44V427.379H118.573V427.512H118.707V427.645H118.84V427.779H118.973V427.912H119.107V428.045H119.24V428.179H119.373V428.312H119.64V428.445H119.773V428.579H119.907V428.712H120.04V428.845H120.173V428.979H120.307V429.112H120.44V429.245H120.707V429.379H120.84V429.512H120.973V429.645H121.107V429.779H121.24V429.912H121.373V430.045H121.507V430.179H121.773V430.312H121.907V430.445H122.04V430.579H122.173V430.712H122.307V430.845H122.44V430.979H122.573V431.112H122.84V431.245H122.973V431.379H123.107V431.512H123.24V431.645H123.373V431.779H123.507V431.912H123.64V432.045H123.773V432.179H123.907V432.312H124.04V432.445H124.307V432.579H124.44V432.712H124.573V432.845H124.707V432.979H124.84V433.112H124.973V433.245H125.107V433.379H125.24V433.512H125.373V433.645H125.507V433.779H125.64V433.912H125.773V434.045H125.907V434.179H126.04V434.312H126.173V434.579H126.307V434.712H126.44V434.845H126.573V434.979H126.707V435.112H126.84V435.245H126.973V435.379H127.107V435.645H127.24V435.779H127.373V435.912H127.507V436.045H127.64V436.312H127.773V436.445H127.907V436.579H128.04V436.845H128.173V436.979H128.307V437.245H128.44V437.379H128.573V437.645H128.707V437.779H128.84V438.045H128.973V438.312H129.107V438.579H129.24V438.845H129.373V439.112H129.507V439.379H129.64V439.645H129.773V439.912H129.907V440.312H130.04V440.579H130.173V440.979H130.307V441.512H130.44V442.045H130.573V442.845H130.707V443.779H130.84V444.712H130.707V446.845H130.573V447.512H130.44V448.179H130.307V448.845H130.173V449.245H130.04V449.645H129.907V449.912H129.773V450.312H129.64V450.712H129.507V450.979H129.373V451.245H129.24V451.512H129.107V451.779H128.973V452.045H128.84V452.312H128.707V452.579H128.573V452.845H128.44V453.112H128.307V453.245H128.173V453.512H128.04V453.645H127.907V453.912H127.773V454.045H127.64V454.312H127.507V454.445H127.373V454.579H127.24V454.845H127.107V454.979H126.973V455.112H126.84V455.379H126.707V455.512H126.573V455.645H126.44V455.779H126.307V455.912H126.173V456.045H126.04V456.179H125.907V456.312H125.773V456.579H125.64V456.712H125.507V456.845H125.373V456.979H125.24V457.112H125.107V457.245H124.973V457.379H124.84V457.512H124.707V457.645H124.573V457.779H124.307V457.912H124.173V458.045H124.04V458.179H123.907V458.312H123.773V458.445H123.64V458.579H123.373V458.712H123.24V458.845H123.107V458.979H122.84V459.112H122.707V459.245H122.573V459.379H122.307V459.512H122.04V459.645H121.907V459.779H121.64V459.912H121.373V460.045H121.24V460.179H120.973V460.312H120.707V460.445H120.573V460.579H120.307V460.712H120.04V460.845H119.907V460.979H119.64V461.112H119.373V461.245H119.107V461.379H118.84V461.512H118.573V461.645H118.173V461.779H117.907V461.912H117.64V462.045H117.373V462.179H116.973V462.312H116.707V462.445H116.44V462.579H116.04V462.712H115.773V462.845H115.373V462.979H114.973V463.112H114.707V463.245H114.307V463.379H113.773V463.512H113.373V463.645H112.973V463.779H112.44V463.912H112.04V464.045H111.64V464.179H111.107V464.312H110.707V464.445H110.173V464.579H109.64V464.712H109.107V464.845H108.573V464.979H107.907V465.112H107.373V465.245H106.84V465.379H106.173V465.512H105.64V465.645H105.107V465.779H104.44V465.912H103.773V466.045H103.107V466.179H102.44V466.312H101.773V466.445H100.973V466.579H100.307V466.712H99.3734V466.845H98.5734V466.979H97.7734V467.112H96.8401V467.245H95.6401V467.379H94.4401V467.512H92.9734V467.645H90.3067V467.779" fill="url(#paint2_linear)"/>
<path d="M61.551 337.095C62.4479 355.808 78.0979 368.321 88.439 382.305C94.1078 389.969 98.1227 398.317 98.3281 407.997C98.4361 413.085 97.8267 418.148 97.6081 423.224C97.3881 428.327 97.6441 433.432 98.3614 438.489C99.1534 444.069 100.568 449.484 102.417 454.804C104.121 459.703 106.16 465.917 102.293 470.369C101.503 471.279 102.828 472.615 103.623 471.7C106.3 468.617 106.775 464.532 106.072 460.624C105.173 455.631 102.927 450.917 101.717 445.984C100.443 440.791 99.6881 435.476 99.4721 430.131C99.2587 424.844 99.7441 419.601 100.049 414.331C100.34 409.316 100.343 404.251 99.1494 399.34C98.0894 394.984 96.1953 390.853 93.8854 387.024C89.1713 379.209 82.8015 372.63 77.0327 365.618C70.2963 357.428 63.9551 348.023 63.4313 337.095C63.3729 335.889 61.4922 335.881 61.551 337.095" fill="#9B9C27"/>
<path d="M45.5245 357.857C56.2187 367.112 69.2505 373.399 83.1718 375.929C84.3546 376.145 84.8619 374.334 83.6718 374.116C70.0739 371.644 57.3089 365.576 46.8537 356.528C45.9427 355.739 44.6067 357.063 45.5245 357.857Z" fill="#9B9C27"/>
<path d="M87.2885 378.284C89.4213 369.599 88.3879 360.408 84.4089 352.402C83.8698 351.318 82.2474 352.27 82.7854 353.351C86.5333 360.892 87.4822 369.609 85.4755 377.784C85.187 378.96 86.9999 379.461 87.2885 378.284Z" fill="#9B9C27"/>
<path d="M73.075 415.319C74.6343 421.641 78.5666 426.905 83.1057 431.441C88.3635 436.695 94.2641 441.337 99.9121 446.156C100.828 446.937 102.164 445.613 101.241 444.827C95.8338 440.213 90.225 435.755 85.127 430.793C80.5239 426.316 76.4531 421.164 74.8885 414.819C74.5989 413.645 72.7854 414.143 73.075 415.319" fill="#9B9C27"/>
<path d="M103.008 450.623C102.585 435.368 117.835 423.908 114.844 408.233C114.617 407.045 112.805 407.548 113.031 408.733C114.527 416.576 110.735 424.029 107.268 430.804C104.095 437.004 100.931 443.485 101.128 450.623C101.161 451.829 103.041 451.835 103.008 450.623Z" fill="#9B9C27"/>
<path d="M53.2359 443.96C49.2155 441.855 46.8098 437.563 45.1155 433.353C43.4207 429.143 42.3385 424.681 40.2974 420.628C37.8901 415.847 34.1594 411.741 29.6318 408.887C23.9843 405.328 17.301 403.769 11.4354 400.584C5.56981 397.397 0.218206 391.616 0.779672 384.964C1.37861 377.873 8.73021 372.868 15.8349 372.484C22.939 372.1 29.7349 375.181 36.0646 378.429C44.8297 382.929 53.3598 387.889 61.5723 393.332C65.3609 395.843 69.1261 398.496 72.0729 401.956C81.3641 412.861 80.3489 429.963 72.7567 442.112C72.7567 442.112 62.3567 448.74 53.2359 443.96Z" fill="#95C734"/>
<path d="M59.5067 445.779V445.645H58.1734V445.512H57.3734V445.379H56.7067V445.245H56.1734V445.112H55.7734V444.979H55.2401V444.845H54.8401V444.712H54.5734V444.579H54.1734V444.445H53.9067V444.312H53.6401V444.179H53.3734V444.045H53.1067V443.912H52.8401V443.779H52.5734V443.645H52.4401V443.512H52.1734V443.379H52.0401V443.245H51.7734V443.112H51.6401V442.979H51.5067V442.845H51.2401V442.712H51.1067V442.579H50.9734V442.445H50.8401V442.312H50.7067V442.179H50.4401V442.045H50.3067V441.912H50.1734V441.779H50.0401V441.645H49.9067V441.379H49.7734V441.245H49.6401V441.112H49.5067V440.979H49.3734V440.845H49.2401V440.712H49.1067V440.579H48.9734V440.312H48.8401V440.179H48.7067V440.045H48.5734V439.912H48.4401V439.645H48.3067V439.512H48.1734V439.245H48.0401V439.112H47.9067V438.845H47.7734V438.712H47.6401V438.445H47.5067V438.312H47.3734V438.045H47.2401V437.779H47.1067V437.645H46.9734V437.379H46.8401V437.112H46.7067V436.845H46.5734V436.579H46.4401V436.312H46.3067V436.045H46.1734V435.779H46.0401V435.512H45.9067V435.245H45.7734V434.979H45.6401V434.712H45.5067V434.312H45.3734V434.045H45.2401V433.779H45.1067V433.379H44.9734V433.112H44.8401V432.712H44.7067V432.312H44.5734V432.045H44.4401V431.645H44.3067V431.245H44.1734V430.845H44.0401V430.579H43.9067V430.179H43.7734V429.779H43.6401V429.379H43.5067V428.979H43.3734V428.579H43.2401V428.179H43.1067V427.779H42.9734V427.379H42.8401V426.979H42.7067V426.579H42.5734V426.312H42.4401V425.912H42.3067V425.512H42.1734V425.112H42.0401V424.845H41.9067V424.445H41.7734V424.045H41.6401V423.779H41.5067V423.379H41.3734V423.112H41.2401V422.712H41.1067V422.445H40.9734V422.179H40.8401V421.779H40.7067V421.512H40.5734V421.245H40.4401V420.979H40.3067V420.712H40.1734V420.445H40.0401V420.179H39.9067V419.912H39.7734V419.645H39.6401V419.512H39.5067V419.245H39.3734V418.979H39.2401V418.845H39.1067V418.579H38.9734V418.445H38.8401V418.179H38.7067V417.912H38.5734V417.779H38.4401V417.512H38.3067V417.379H38.1734V417.112H38.0401V416.979H37.9067V416.845H37.7734V416.579H37.6401V416.445H37.5067V416.312H37.3734V416.179H37.2401V415.912H37.1067V415.779H36.9734V415.645H36.8401V415.512H36.7067V415.245H36.5734V415.112H36.4401V414.979H36.3067V414.845H36.1734V414.579H36.0401V414.445H35.9067V414.312H35.7734V414.179H35.6401V414.045H35.5067V413.912H35.3734V413.779H35.2401V413.645H35.1067V413.512H34.9734V413.379H34.8401V413.245H34.7067V413.112H34.5734V412.979H34.4401V412.845H34.3067V412.712H34.1734V412.579H34.0401V412.445H33.9067V412.312H33.7734V412.179H33.6401V412.045H33.5067V411.912H33.3734V411.779H33.2401V411.645H33.1067V411.512H32.9734V411.379H32.8401V411.245H32.5734V411.112H32.4401V410.979H32.3067V410.845H32.0401V410.712H31.9067V410.579H31.7734V410.445H31.6401V410.312H31.3734V410.179H31.2401V410.045H31.1067V409.912H30.8401V409.779H30.7067V409.645H30.5734V409.512H30.3067V409.379H30.1734V409.245H29.9067V409.112H29.7734V408.979H29.5067V408.845H29.2401V408.712H29.1067V408.579H28.8401V408.445H28.5734V408.312H28.3067V408.179H28.1734V408.045H27.9067V407.912H27.6401V407.779H27.3734V407.645H27.1067V407.512H26.8401V407.379H26.5734V407.245H26.3067V407.112H26.0401V406.979H25.7734V406.845H25.5067V406.712H25.2401V406.579H24.9734V406.445H24.7067V406.312H24.3067V406.179H24.0401V406.045H23.7734V405.912H23.3734V405.779H23.1067V405.645H22.8401V405.512H22.4401V405.379H22.1734V405.245H21.7734V405.112H21.5067V404.979H21.1067V404.845H20.8401V404.712H20.4401V404.579H20.1734V404.445H19.7734V404.312H19.5067V404.179H19.1067V404.045H18.8401V403.912H18.4401V403.779H18.1734V403.645H17.7734V403.512H17.5067V403.379H17.1067V403.245H16.8401V403.112H16.5734V402.979H16.1734V402.845H15.9067V402.712H15.5067V402.579H15.2401V402.445H14.9734V402.312H14.7067V402.179H14.3067V402.045H14.0401V401.912H13.7734V401.779H13.5067V401.645H13.2401V401.512H12.9734V401.379H12.7067V401.245H12.4401V401.112H12.1734V400.979H11.9067V400.845H11.6401V400.712H11.3734V400.579H11.1067V400.445H10.8401V400.312H10.7067V400.179H10.4401V400.045H10.1734V399.912H10.0401V399.779H9.77341V399.645H9.64007V399.512H9.37341V399.379H9.24007V399.245H8.97341V399.112H8.84007V398.979H8.57341V398.845H8.44007V398.712H8.30674V398.579H8.04007V398.445H7.90674V398.312H7.77341V398.179H7.50674V398.045H7.37341V397.912H7.24007V397.779H7.10674V397.645H6.97341V397.512H6.70674V397.379H6.57341V397.245H6.44007V397.112H6.30674V396.979H6.17341V396.845H6.04007V396.712H5.90674V396.579H5.77341V396.445H5.64007V396.312H5.50674V396.179H5.37341V396.045H5.24007V395.912H5.10674V395.779H4.97341V395.645H4.84007V395.512H4.70674V395.379H4.57341V395.112H4.44007V394.979H4.30674V394.845H4.17341V394.712H4.04007V394.579H3.90674V394.445H3.77341V394.179H3.64007V394.045H3.50674V393.779H3.37341V393.645H3.24007V393.379H3.10674V393.245H2.97341V392.979H2.84007V392.845H2.70674V392.579H2.57341V392.445H2.44007V392.179H2.30674V391.912H2.17341V391.645H2.04007V391.379H1.90674V390.979H1.77341V390.712H1.64007V390.445H1.50674V390.045H1.37341V389.645H1.24007V389.245H1.10674V388.579H0.973408V388.045H0.840075V387.379H0.706741V384.179H0.840075V383.645H0.973408V383.112H1.10674V382.579H1.24007V382.179H1.37341V381.912H1.50674V381.645H1.64007V381.379H1.77341V381.112H1.90674V380.712H2.04007V380.445H2.17341V380.179H2.30674V379.912H2.44007V379.779H2.57341V379.645H2.70674V379.379H2.84007V379.245H2.97341V378.979H3.10674V378.845H3.24007V378.712H3.37341V378.445H3.50674V378.312H3.64007V378.179H3.77341V377.912H3.90674V377.779H4.04007V377.645H4.30674V377.512H4.44007V377.379H4.57341V377.245H4.70674V377.112H4.84007V376.979H4.97341V376.845H5.10674V376.712H5.24007V376.579H5.37341V376.445H5.50674V376.312H5.64007V376.179H5.90674V376.045H6.04007V375.912H6.30674V375.779H6.44007V375.645H6.70674V375.512H6.84007V375.379H7.10674V375.245H7.24007V375.112H7.50674V374.979H7.64007V374.845H7.90674V374.712H8.04007V374.579H8.30674V374.445H8.70674V374.312H8.97341V374.179H9.24007V374.045H9.50674V373.912H9.77341V373.779H10.1734V373.645H10.4401V373.512H10.8401V373.379H11.2401V373.245H11.7734V373.112H12.1734V372.979H12.5734V372.845H13.1067V372.712H13.9067V372.579H14.7067V372.445H19.2401V372.579H20.4401V372.712H21.3734V372.845H22.0401V372.979H22.7067V373.112H23.2401V373.245H23.7734V373.379H24.3067V373.512H24.8401V373.645H25.2401V373.779H25.6401V373.912H26.0401V374.045H26.5734V374.179H26.8401V374.312H27.2401V374.445H27.6401V374.579H28.0401V374.712H28.3067V374.845H28.7067V374.979H28.9734V375.112H29.3734V375.245H29.6401V375.379H30.0401V375.512H30.3067V375.645H30.5734V375.779H30.8401V375.912H31.2401V376.045H31.5067V376.179H31.7734V376.312H32.0401V376.445H32.3067V376.579H32.7067V376.712H32.9734V376.845H33.2401V376.979H33.5067V377.112H33.7734V377.245H34.0401V377.379H34.3067V377.512H34.5734V377.645H34.8401V377.779H35.1067V377.912H35.3734V378.045H35.6401V378.179H35.9067V378.312H36.1734V378.445H36.4401V378.579H36.7067V378.712H36.9734V378.845H37.2401V378.979H37.5067V379.112H37.7734V379.245H37.9067V379.379H38.1734V379.512H38.4401V379.645H38.7067V379.779H38.9734V379.912H39.2401V380.045H39.5067V380.179H39.7734V380.312H39.9067V380.445H40.1734V380.579H40.4401V380.712H40.7067V380.845H40.9734V380.979H41.2401V381.112H41.5067V381.245H41.6401V381.379H41.9067V381.512H42.1734V381.645H42.4401V381.779H42.7067V381.912H42.9734V382.045H43.1067V382.179H43.3734V382.312H43.6401V382.445H43.9067V382.579H44.1734V382.712H44.3067V382.845H44.5734V382.979H44.8401V383.112H45.1067V383.245H45.2401V383.379H45.5067V383.512H45.7734V383.645H46.0401V383.779H46.1734V383.912H46.4401V384.045H46.7067V384.179H46.9734V384.312H47.2401V384.445H47.3734V384.579H47.6401V384.712H47.9067V384.845H48.1734V384.979H48.3067V385.112H48.5734V385.245H48.8401V385.379H49.1067V385.512H49.2401V385.645H49.5067V385.779H49.7734V385.912H49.9067V386.045H50.1734V386.179H50.4401V386.312H50.5734V386.445H50.8401V386.579H51.1067V386.712H51.2401V386.845H51.5067V386.979H51.7734V387.112H51.9067V387.245H52.1734V387.379H52.4401V387.512H52.5734V387.645H52.8401V387.779H53.1067V387.912H53.2401V388.045H53.5067V388.179H53.7734V388.312H53.9067V388.445H54.1734V388.579H54.4401V388.712H54.5734V388.845H54.8401V388.979H55.1067V389.112H55.2401V389.245H55.5067V389.379H55.6401V389.512H55.9067V389.645H56.1734V389.779H56.3067V389.912H56.5734V390.045H56.7067V390.179H56.9734V390.312H57.1067V390.445H57.3734V390.579H57.6401V390.712H57.7734V390.845H58.0401V390.979H58.1734V391.112H58.4401V391.245H58.5734V391.379H58.8401V391.512H59.1067V391.645H59.2401V391.779H59.5067V391.912H59.6401V392.045H59.9067V392.179H60.0401V392.312H60.3067V392.445H60.4401V392.579H60.7067V392.712H60.8401V392.845H61.1067V392.979H61.3734V393.112H61.5067V393.245H61.7734V393.379H61.9067V393.512H62.1734V393.645H62.3067V393.779H62.5734V393.912H62.7067V394.045H62.8401V394.179H63.1067V394.312H63.2401V394.445H63.5067V394.579H63.6401V394.712H63.9067V394.845H64.0401V394.979H64.3067V395.112H64.4401V395.245H64.5734V395.379H64.8401V395.512H64.9734V395.645H65.1067V395.779H65.3734V395.912H65.5067V396.045H65.7734V396.179H65.9067V396.312H66.0401V396.445H66.3067V396.579H66.4401V396.712H66.5734V396.845H66.8401V396.979H66.9734V397.112H67.1067V397.245H67.3734V397.379H67.5067V397.512H67.6401V397.645H67.7734V397.779H67.9067V397.912H68.0401V398.045H68.3067V398.179H68.4401V398.312H68.5734V398.445H68.7067V398.579H68.8401V398.712H68.9734V398.845H69.2401V398.979H69.3734V399.112H69.5067V399.245H69.6401V399.379H69.7734V399.512H69.9067V399.645H70.0401V399.779H70.1734V399.912H70.3067V400.045H70.4401V400.179H70.5734V400.312H70.7067V400.445H70.8401V400.579H70.9734V400.712H71.1067V400.845H71.2401V400.979H71.3734V401.112H71.5067V401.245H71.6401V401.379H71.7734V401.512H71.9067V401.645H72.0401V401.912H72.1734V402.045H72.3067V402.179H72.4401V402.312H72.5734V402.445H72.7067V402.712H72.8401V402.845H72.9734V402.979H73.1067V403.245H73.2401V403.379H73.3734V403.512H73.5067V403.779H73.6401V403.912H73.7734V404.179H73.9067V404.312H74.0401V404.579H74.1734V404.845H74.3067V404.979H74.4401V405.245H74.5734V405.379H74.7067V405.645H74.8401V405.912H74.9734V406.045H75.1067V406.312H75.2401V406.579H75.3734V406.845H75.5067V407.112H75.6401V407.379H75.7734V407.645H75.9067V407.912H76.0401V408.179H76.1734V408.445H76.3067V408.845H76.4401V409.112H76.5734V409.512H76.7067V409.779H76.8401V410.179H76.9734V410.579H77.1067V410.845H77.2401V411.379H77.3734V411.779H77.5067V412.312H77.6401V412.712H77.7734V413.245H77.9067V413.779H78.0401V414.445H78.1734V415.112H78.3067V415.779H78.4401V416.845H78.5734V418.045H78.7067V420.312H78.8401V422.579H78.7067V424.845H78.5734V426.045H78.4401V427.112H78.3067V427.779H78.1734V428.579H78.0401V429.245H77.9067V429.912H77.7734V430.445H77.6401V430.979H77.5067V431.379H77.3734V431.779H77.2401V432.312H77.1067V432.712H76.9734V433.245H76.8401V433.645H76.7067V434.045H76.5734V434.445H76.4401V434.845H76.3067V435.112H76.1734V435.512H76.0401V435.779H75.9067V436.179H75.7734V436.445H75.6401V436.712H75.5067V437.112H75.3734V437.379H75.2401V437.779H75.1067V438.045H74.9734V438.312H74.8401V438.579H74.7067V438.845H74.5734V439.112H74.4401V439.379H74.3067V439.645H74.1734V439.912H74.0401V440.179H73.9067V440.445H73.7734V440.712H73.6401V440.845H73.5067V441.112H73.3734V441.379H73.2401V441.645H73.1067V441.779H72.9734V442.045H72.8401V442.179H72.7067V442.312H72.4401V442.445H72.3067V442.579H72.0401V442.712H71.7734V442.845H71.5067V442.979H71.2401V443.112H70.9734V443.245H70.7067V443.379H70.4401V443.512H70.1734V443.645H69.7734V443.779H69.5067V443.912H69.1067V444.045H68.8401V444.179H68.4401V444.312H68.0401V444.445H67.7734V444.579H67.2401V444.712H66.8401V444.845H66.4401V444.979H65.9067V445.112H65.3734V445.245H64.7067V445.379H64.0401V445.512H63.1067V445.645H61.7734V445.779" fill="url(#paint3_linear)"/>
<path d="M1.10101 379.563C18.5849 384.059 35.1083 392.136 47.9442 405.019C58.2703 415.384 65.6322 428.199 71.0161 441.72C73.7963 448.703 76.0906 455.863 78.2485 463.057C78.5953 464.214 80.4103 463.721 80.0614 462.557C76.0603 449.215 71.5046 435.939 64.5245 423.823C56.601 410.069 45.589 398.379 31.975 390.148C22.5687 384.459 12.2255 380.483 1.60101 377.749C0.428611 377.448 -0.0724554 379.261 1.10101 379.563" fill="#7CA027"/>
<path d="M47.7073 376.485C53.0182 386.008 59.5365 394.868 64.075 404.815C68.9833 415.572 70.4999 427.277 70.7155 439.004C70.7265 439.608 71.6666 439.611 71.6557 439.004C71.4442 427.515 70.0078 416.02 65.3661 405.412C60.8239 395.032 54.0182 385.872 48.5193 376.011C48.2239 375.483 47.4114 375.956 47.7073 376.485Z" fill="#7CA027"/>
<path d="M23.2604 413.345C32.8489 415.567 42.6401 417.841 51.1838 422.931C55.1521 425.295 58.4963 428.276 61.6489 431.625C64.5109 434.665 67.3489 437.74 70.9635 439.901C71.4838 440.213 71.9573 439.401 71.4374 439.091C67.5755 436.779 64.6406 433.395 61.5677 430.172C58.4603 426.913 55.0646 424.091 51.1603 421.827C42.6583 416.897 32.9942 414.636 23.5104 412.439C22.9213 412.303 22.6704 413.208 23.2604 413.345" fill="#7CA027"/>
<path d="M58.9911 418.496C68.0906 432.092 73.577 447.489 78.2485 463.057C78.5953 464.214 80.4103 463.721 80.0614 462.557C75.3463 446.844 69.7989 431.269 60.6141 417.547C59.9447 416.545 58.3151 417.487 58.9911 418.496Z" fill="#7CA027"/>
<path d="M238.001 454.887H148.225V264.144H238.001V454.887Z" fill="#19404C"/>
<path d="M279.367 395.176H462.853V265.397H279.367V395.176Z" fill="#19404C"/>
<path d="M270.227 415.283H462.853V403.42H270.227V415.283Z" fill="#D6721A"/>
<path d="M288.505 382.382H462.853V265.398H288.505V382.382Z" fill="#225365"/>
<path d="M238.001 450.623H158.421V264.144H238.001V450.623Z" fill="#225365"/>
<path d="M140.283 409.248L112.843 390.176L218.239 238.531L245.679 257.603L140.283 409.248" fill="#469EAB"/>
<path d="M154.895 421.677L148.225 417.041L253.621 265.397L260.291 270.032L154.895 421.677" fill="#469EAB"/>
<path d="M313.421 412.625L285.98 393.554L391.377 241.908L418.817 260.982L313.421 412.625" fill="#469EAB"/>
<path d="M351.92 398.188L345.251 393.553L450.647 241.908L457.316 246.543L351.92 398.188" fill="#469EAB"/>
<path d="M96.8379 128.167C96.7322 128.124 96.6797 128.101 96.6797 128.101H96.8485L96.8379 128.167Z" fill="url(#paint4_linear)"/>
<path d="M286.249 151.348V128.101H352.399V148.392C332.435 149.966 310.335 151.062 286.249 151.348ZM223.617 149.979C198.667 148.512 177.557 146.071 160.132 143.339L162.463 128.101H225.896L223.617 149.979V149.979ZM414.131 141.34L412.752 128.101H478.087C478.087 128.101 455.484 135.035 414.131 141.34Z" fill="#F793A4"/>
<path d="M160.132 143.339C119.355 136.944 98.8161 128.96 96.8379 128.167L96.8485 128.101H162.463L160.132 143.339" fill="white"/>
<path d="M274.299 151.42C255.924 151.42 239.036 150.885 223.617 149.979L225.896 128.101H286.249V151.348C283.975 151.375 281.676 151.395 279.367 151.407C277.667 151.416 275.975 151.42 274.299 151.42" fill="white"/>
<path d="M352.399 148.392V128.101H412.752L414.131 141.34C396.767 143.988 376.092 146.525 352.399 148.392" fill="white"/>
<path d="M493.171 433.591C489.797 426.241 486.243 418.748 485.308 410.715C484.488 403.681 486.627 396.348 491.1 390.857C495.845 385.032 502.897 381.399 507.489 375.451C513.159 368.11 514.24 357.508 510.172 349.172C506.543 341.732 497.077 336.215 489.884 340.312C483.188 344.124 482.395 353.357 478.113 359.761C472.589 368.029 461.716 370.909 454.783 378.037C449.021 383.963 446.436 392.812 448.103 400.908C449.216 406.32 452.104 411.617 451.128 417.057C449.28 427.373 435.116 431.427 432.351 441.535C430.589 447.979 434.331 454.926 439.713 458.879C445.097 462.833 451.815 464.421 458.352 465.788C469.033 468.02 481.356 469.54 489.791 462.617C489.791 462.617 502.945 454.887 493.171 433.591" fill="#B6BC34"/>
<path d="M472.307 467.779V467.645H469.64V467.512H468.307V467.379H467.107V467.245H465.773V467.112H464.973V466.979H464.04V466.845H463.24V466.712H462.44V466.579H461.64V466.445H460.973V466.312H460.307V466.179H459.507V466.045H458.84V465.912H458.307V465.779H457.64V465.645H456.973V465.512H456.44V465.379H455.773V465.245H455.24V465.112H454.707V464.979H454.04V464.845H453.507V464.712H452.973V464.579H452.44V464.445H452.04V464.312H451.507V464.179H451.107V464.045H450.573V463.912H450.04V463.779H449.64V463.645H449.24V463.512H448.84V463.379H448.307V463.245H448.04V463.112H447.64V462.979H447.24V462.845H446.973V462.712H446.573V462.579H446.173V462.445H445.907V462.312H445.64V462.179H445.373V462.045H444.973V461.912H444.707V461.779H444.44V461.645H444.173V461.512H443.907V461.379H443.507V461.245H443.373V461.112H443.107V460.979H442.84V460.845H442.573V460.712H442.307V460.579H442.173V460.445H441.907V460.312H441.64V460.179H441.507V460.045H441.24V459.912H440.973V459.779H440.84V459.645H440.573V459.512H440.307V459.379H440.173V459.245H439.907V459.112H439.773V458.979H439.64V458.845H439.373V458.712H439.24V458.579H439.107V458.445H438.973V458.312H438.707V458.179H438.573V458.045H438.44V457.912H438.307V457.779H438.173V457.645H438.04V457.512H437.907V457.379H437.773V457.245H437.64V457.112H437.507V456.979H437.373V456.845H437.24V456.712H437.107V456.579H436.973V456.445H436.84V456.312H436.707V456.179H436.573V456.045H436.44V455.912H436.307V455.779H436.173V455.645H436.04V455.379H435.907V455.245H435.773V455.112H435.64V454.979H435.507V454.712H435.373V454.579H435.24V454.312H435.107V454.179H434.973V454.045H434.84V453.779H434.707V453.645H434.573V453.379H434.44V453.245H434.307V452.979H434.173V452.712H434.04V452.445H433.907V452.179H433.773V452.045H433.64V451.779H433.507V451.512H433.373V451.245H433.24V450.845H433.107V450.579H432.973V450.179H432.84V449.779H432.707V449.512H432.573V449.112H432.44V448.579H432.307V448.045H432.173V447.379H432.04V446.712H431.907V443.112H432.04V442.312H432.173V441.645H432.307V441.112H432.44V440.712H432.573V440.445H432.707V440.045H432.84V439.645H432.973V439.379H433.107V439.112H433.24V438.845H433.373V438.712H433.507V438.445H433.64V438.179H433.773V437.912H433.907V437.645H434.04V437.512H434.173V437.245H434.307V437.112H434.44V436.845H434.573V436.712H434.707V436.445H434.84V436.312H434.973V436.179H435.107V436.045H435.24V435.779H435.373V435.645H435.507V435.512H435.64V435.379H435.773V435.112H435.907V434.979H436.04V434.845H436.173V434.712H436.307V434.579H436.44V434.445H436.573V434.312H436.707V434.179H436.84V434.045H436.973V433.912H437.107V433.779H437.24V433.645H437.373V433.379H437.64V433.245H437.773V433.112H437.907V432.979H438.04V432.845H438.173V432.712H438.307V432.579H438.44V432.445H438.573V432.312H438.707V432.179H438.84V432.045H438.973V431.912H439.107V431.779H439.24V431.645H439.373V431.512H439.64V431.379H439.773V431.245H439.907V431.112H440.04V430.979H440.173V430.845H440.307V430.712H440.44V430.579H440.573V430.445H440.84V430.312H440.973V430.179H441.107V430.045H441.24V429.912H441.373V429.779H441.507V429.645H441.64V429.512H441.907V429.379H442.04V429.245H442.173V429.112H442.307V428.979H442.44V428.845H442.573V428.712H442.84V428.579H442.973V428.445H443.107V428.312H443.24V428.179H443.373V428.045H443.507V427.912H443.64V427.779H443.773V427.645H443.907V427.512H444.173V427.379H444.307V427.245H444.44V427.112H444.573V426.979H444.707V426.845H444.84V426.712H444.973V426.579H445.107V426.445H445.24V426.312H445.373V426.179H445.507V426.045H445.64V425.912H445.773V425.779H445.907V425.645H446.04V425.512H446.173V425.379H446.307V425.245H446.44V425.112H446.573V424.979H446.707V424.845H446.84V424.712H446.973V424.579H447.107V424.445H447.24V424.179H447.373V424.045H447.507V423.912H447.64V423.779H447.773V423.645H447.907V423.379H448.04V423.245H448.173V423.112H448.307V422.845H448.44V422.712H448.573V422.579H448.707V422.312H448.84V422.179H448.973V421.912H449.107V421.779H449.24V421.512H449.373V421.245H449.507V420.979H449.64V420.845H449.773V420.579H449.907V420.312H450.04V419.912H450.173V419.645H450.307V419.379H450.44V418.979H450.573V418.579H450.707V418.179H450.84V417.645H450.973V417.112H451.107V416.179H451.24V413.379H451.107V412.312H450.973V411.512H450.84V410.845H450.707V410.312H450.573V409.779H450.44V409.245H450.307V408.712H450.173V408.312H450.04V407.779H449.907V407.379H449.773V406.979H449.64V406.445H449.507V406.045H449.373V405.645H449.24V405.245H449.107V404.712H448.973V404.312H448.84V403.779H448.707V403.379H448.573V402.845H448.44V402.312H448.307V401.779H448.173V401.245H448.04V400.712H447.907V399.779H447.773V398.712H447.64V395.379H447.507V394.712H447.64V393.379H447.773V392.179H447.907V391.245H448.04V390.712H448.173V390.179H448.307V389.512H448.44V388.979H448.573V388.445H448.707V388.045H448.84V387.645H448.973V387.379H449.107V386.979H449.24V386.579H449.373V386.179H449.507V385.912H449.64V385.512H449.773V385.245H449.907V384.979H450.04V384.712H450.173V384.445H450.307V384.179H450.44V383.912H450.573V383.645H450.707V383.379H450.84V383.112H450.973V382.845H451.107V382.712H451.24V382.445H451.373V382.312H451.507V382.045H451.64V381.779H451.773V381.645H451.907V381.379H452.04V381.245H452.173V380.979H452.307V380.845H452.44V380.579H452.573V380.445H452.707V380.312H452.84V380.045H452.973V379.912H453.107V379.779H453.24V379.645H453.373V379.379H453.507V379.245H453.64V379.112H453.773V378.979H453.907V378.845H454.04V378.579H454.173V378.445H454.307V378.312H454.44V378.179H454.573V378.045H454.707V377.912H454.84V377.779H454.973V377.645H455.107V377.512H455.24V377.379H455.373V377.245H455.507V377.112H455.64V376.979H455.773V376.845H456.04V376.712H456.173V376.579H456.307V376.445H456.44V376.312H456.573V376.179H456.707V376.045H456.84V375.912H457.107V375.779H457.24V375.645H457.373V375.512H457.507V375.379H457.773V375.245H457.907V375.112H458.04V374.979H458.307V374.845H458.44V374.712H458.573V374.579H458.84V374.445H458.973V374.312H459.24V374.179H459.373V374.045H459.507V373.912H459.773V373.779H459.907V373.645H460.04V373.512H460.307V373.379H460.44V373.245H460.707V373.112H460.84V372.979H461.107V372.845H461.24V372.712H461.507V372.579H461.64V372.445H461.907V372.312H462.173V372.179H462.307V372.045H462.573V371.912H462.707V371.779H462.973V371.645H463.107V371.512H463.373V371.379H463.507V371.245H463.773V371.112H464.04V370.979H464.173V370.845H464.44V370.712H464.707V370.579H464.84V370.445H465.107V370.312H465.24V370.179H465.507V370.045H465.773V369.912H465.907V369.779H466.173V369.645H466.44V369.512H466.573V369.379H466.84V369.245H466.973V369.112H467.24V368.979H467.507V368.845H467.64V368.712H467.907V368.579H468.04V368.445H468.307V368.312H468.44V368.179H468.707V368.045H468.84V367.912H469.107V367.779H469.373V367.645H469.507V367.512H469.773V367.379H469.907V367.245H470.173V367.112H470.307V366.979H470.44V366.845H470.707V366.712H470.84V366.579H471.107V366.445H471.24V366.312H471.373V366.179H471.64V366.045H471.773V365.912H471.907V365.779H472.173V365.645H472.307V365.512H472.44V365.379H472.707V365.245H472.84V365.112H472.973V364.979H473.24V364.845H473.373V364.712H473.507V364.579H473.64V364.445H473.773V364.312H473.907V364.179H474.04V364.045H474.173V363.912H474.307V363.779H474.44V363.645H474.573V363.512H474.84V363.379H474.973V363.245H475.107V363.112H475.24V362.979H475.373V362.845H475.507V362.712H475.64V362.579H475.773V362.445H475.907V362.312H476.04V362.179H476.173V362.045H476.307V361.779H476.44V361.645H476.573V361.512H476.707V361.379H476.84V361.245H476.973V360.979H477.107V360.845H477.24V360.712H477.373V360.579H477.507V360.445H477.64V360.179H477.773V360.045H477.907V359.779H478.04V359.645H478.173V359.379H478.307V359.245H478.44V358.979H478.573V358.712H478.707V358.445H478.84V358.312H478.973V358.045H479.107V357.779H479.24V357.512H479.373V357.245H479.507V356.979H479.64V356.712H479.773V356.445H479.907V356.179H480.04V355.912H480.173V355.645H480.307V355.245H480.44V354.979H480.573V354.712H480.707V354.445H480.84V354.179H480.973V353.779H481.107V353.512H481.24V353.112H481.373V352.845H481.507V352.445H481.64V352.179H481.773V351.912H481.907V351.512H482.04V351.245H482.173V350.845H482.307V350.579H482.44V350.312H482.573V349.912H482.707V349.645H482.84V349.245H482.973V348.979H483.107V348.712H483.24V348.445H483.373V348.179H483.507V347.912H483.64V347.645H483.773V347.245H483.907V346.979H484.04V346.712H484.173V346.445H484.307V346.179H484.44V346.045H484.573V345.779H484.707V345.645H484.84V345.379H484.973V345.112H485.107V344.979H485.24V344.712H485.373V344.445H485.507V344.312H485.64V344.045H485.773V343.912H485.907V343.779H486.04V343.645H486.173V343.379H486.307V343.245H486.44V343.112H486.573V342.979H486.707V342.845H486.84V342.712H486.973V342.579H487.107V342.312H487.24V342.179H487.373V342.045H487.507V341.912H487.64V341.779H487.773V341.645H488.04V341.512H488.173V341.379H488.307V341.245H488.44V341.112H488.707V340.979H488.84V340.845H488.973V340.712H489.107V340.579H489.373V340.445H489.64V340.312H489.773V340.179H490.04V340.045H490.307V339.912H490.707V339.779H490.973V339.645H491.373V339.512H491.773V339.379H492.04V339.245H492.44V339.112H493.24V338.979H494.04V338.845H496.307V338.979H497.373V339.112H498.04V339.245H498.44V339.379H498.973V339.512H499.507V339.645H499.907V339.779H500.173V339.912H500.573V340.045H500.84V340.179H501.107V340.312H501.373V340.445H501.773V340.579H502.04V340.712H502.173V340.845H502.44V340.979H502.707V341.112H502.84V341.245H503.107V341.379H503.373V341.512H503.507V341.645H503.773V341.779H503.907V341.912H504.173V342.045H504.307V342.179H504.44V342.312H504.573V342.445H504.84V342.579H504.973V342.712H505.107V342.845H505.24V342.979H505.507V343.112H505.64V343.245H505.773V343.379H505.907V343.512H506.04V343.645H506.173V343.779H506.307V343.912H506.44V344.045H506.573V344.179H506.707V344.312H506.84V344.445H506.973V344.579H507.107V344.712H507.24V344.845H507.373V344.979H507.507V345.112H507.64V345.245H507.773V345.512H507.907V345.645H508.04V345.779H508.173V345.912H508.307V346.179H508.44V346.312H508.573V346.445H508.707V346.712H508.84V346.845H508.973V347.112H509.107V347.245H509.24V347.512H509.373V347.645H509.507V347.912H509.64V348.179H509.773V348.312H509.907V348.579H510.04V348.845H510.173V349.112H510.307V349.379H510.44V349.645H510.573V349.912H510.707V350.312H510.84V350.712H510.973V350.979H511.107V351.379H511.24V351.779H511.373V352.179H511.507V352.579H511.64V353.112H511.773V353.645H511.907V354.179H512.04V354.712H512.173V355.379H512.307V356.179H512.44V357.512H512.573V358.845H512.707V360.179H512.573V362.979H512.44V363.779H512.307V364.579H512.173V365.379H512.04V366.179H511.907V366.579H511.773V366.979H511.64V367.512H511.507V367.912H511.373V368.312H511.24V368.712H511.107V369.112H510.973V369.512H510.84V369.779H510.707V370.179H510.573V370.445H510.44V370.712H510.307V370.979H510.173V371.245H510.04V371.512H509.907V371.779H509.773V372.045H509.64V372.445H509.507V372.579H509.373V372.845H509.24V373.112H509.107V373.245H508.973V373.512H508.84V373.779H508.707V373.912H508.573V374.179H508.44V374.312H508.307V374.579H508.173V374.712H508.04V374.979H507.907V375.112H507.773V375.379H507.64V375.512H507.507V375.645H507.373V375.779H507.24V376.045H507.107V376.179H506.973V376.312H506.84V376.445H506.707V376.579H506.573V376.712H506.44V376.979H506.307V377.112H506.173V377.245H506.04V377.379H505.907V377.512H505.773V377.645H505.64V377.779H505.507V377.912H505.373V378.045H505.24V378.179H505.107V378.312H504.973V378.445H504.84V378.579H504.707V378.712H504.573V378.845H504.44V378.979H504.307V379.112H504.173V379.245H504.04V379.379H503.907V379.512H503.773V379.645H503.64V379.779H503.507V379.912H503.373V380.045H503.107V380.179H502.973V380.312H502.84V380.445H502.707V380.579H502.573V380.712H502.44V380.845H502.307V380.979H502.04V381.112H501.907V381.245H501.773V381.379H501.64V381.512H501.507V381.645H501.373V381.779H501.107V381.912H500.973V382.045H500.84V382.179H500.707V382.312H500.44V382.445H500.307V382.579H500.173V382.712H500.04V382.845H499.907V382.979H499.64V383.112H499.507V383.245H499.373V383.379H499.24V383.512H498.973V383.645H498.84V383.779H498.707V383.912H498.573V384.045H498.44V384.179H498.173V384.312H498.04V384.445H497.907V384.579H497.773V384.712H497.507V384.845H497.373V384.979H497.24V385.112H497.107V385.245H496.973V385.379H496.84V385.512H496.573V385.645H496.44V385.779H496.307V385.912H496.173V386.045H496.04V386.179H495.907V386.312H495.64V386.445H495.507V386.579H495.373V386.712H495.24V386.845H495.107V386.979H494.973V387.112H494.84V387.245H494.707V387.379H494.44V387.512H494.307V387.645H494.173V387.779H494.04V387.912H493.907V388.045H493.773V388.179H493.64V388.312H493.507V388.445H493.373V388.579H493.24V388.712H493.107V388.845H492.973V388.979H492.84V389.112H492.707V389.245H492.573V389.379H492.44V389.512H492.307V389.645H492.173V389.779H492.04V390.045H491.907V390.179H491.773V390.312H491.64V390.445H491.507V390.579H491.373V390.712H491.24V390.979H491.107V391.112H490.973V391.245H490.84V391.379H490.707V391.645H490.573V391.779H490.44V391.912H490.307V392.179H490.173V392.312H490.04V392.579H489.907V392.712H489.773V392.979H489.64V393.112H489.507V393.379H489.373V393.512H489.24V393.779H489.107V394.045H488.973V394.179H488.84V394.445H488.707V394.712H488.573V394.845H488.44V395.112H488.307V395.379H488.173V395.645H488.04V395.912H487.907V396.179H487.773V396.445H487.64V396.712H487.507V397.112H487.373V397.379H487.24V397.779H487.107V398.045H486.973V398.445H486.84V398.712H486.707V399.245H486.573V399.645H486.44V400.045H486.307V400.445H486.173V400.979H486.04V401.512H485.907V402.179H485.773V402.712H485.64V403.379H485.507V404.445H485.373V405.512H485.24V410.045H485.373V411.245H485.507V411.512H485.373V412.045H485.24V412.445H485.107V412.979H484.973V413.512H484.84V414.045H484.707V414.845H484.573V415.512H484.44V416.179H484.307V417.379H484.173V418.579H484.04V423.379H483.907V423.645H483.773V423.779H483.64V424.045H483.507V424.179H483.373V424.312H483.24V424.579H483.107V424.712H482.973V424.845H482.84V424.979H482.707V425.245H482.573V425.379H482.44V425.512H482.307V425.645H482.173V425.912H482.04V426.045H481.907V426.179H481.773V426.445H481.64V426.579H481.507V426.712H481.373V426.845H481.24V427.112H481.107V427.245H480.973V427.379H480.84V427.512H480.707V427.645H480.573V427.779H480.44V427.912H480.307V428.045H480.173V428.179H480.04V428.312H479.907V428.579H479.773V428.712H479.64V428.845H479.507V428.979H479.373V429.112H479.24V429.245H479.107V429.379H478.973V429.512H478.84V429.645H478.707V429.779H478.573V429.912H478.44V430.045H478.307V430.179H478.173V430.312H478.04V430.445H477.907V430.579H477.773V430.712H477.64V430.845H477.507V430.979H477.373V431.112H477.24V431.245H477.107V431.379H476.973V431.512H476.84V431.645H476.707V431.779H476.573V431.912H476.44V432.045H476.307V432.179H476.173V432.312H476.04V432.445H475.907V432.579H475.773V432.712H475.507V432.845H475.373V432.979H475.24V433.112H475.107V433.245H474.973V433.379H474.84V433.512H474.707V433.645H474.573V433.779H474.44V433.912H474.307V434.045H474.173V434.179H473.907V434.312H473.773V434.445H473.64V434.579H473.507V434.712H473.373V434.845H473.24V434.979H473.107V435.112H472.973V435.245H472.707V435.379H472.573V435.512H472.44V435.645H472.307V435.779H472.173V435.912H472.04V436.045H471.773V436.179H471.64V436.312H471.507V436.445H471.373V436.579H471.24V436.712H471.107V436.845H470.973V436.979H470.707V437.112H470.573V437.245H470.44V437.379H470.307V437.512H470.173V437.645H470.04V437.779H469.907V437.912H469.64V438.045H469.507V438.179H469.373V438.312H469.24V438.445H469.107V438.579H468.84V438.712H468.707V438.845H468.573V438.979H468.44V439.112H468.307V439.245H468.173V439.379H467.907V439.512H467.773V439.645H467.64V439.779H467.507V439.912H467.373V440.045H467.107V440.179H466.973V440.312H466.84V440.445H466.707V440.579H466.573V440.712H466.307V440.845H466.173V440.979H466.04V441.112H465.907V441.245H465.773V441.379H465.64V441.512H465.373V441.645H465.24V441.779H465.107V441.912H464.973V442.045H464.84V442.179H464.573V442.312H464.44V442.445H464.307V442.579H464.173V442.712H464.04V442.845H463.773V442.979H463.64V443.112H463.507V443.245H463.373V443.379H463.24V443.512H462.973V443.645H462.84V443.779H462.707V443.912H462.573V444.045H462.44V444.179H462.307V444.312H462.04V444.445H461.907V444.579H461.773V444.712H461.64V444.845H461.507V444.979H461.373V445.112H461.24V445.779H461.373V446.045H461.64V446.179H461.773V446.312H462.44V446.179H462.707V446.045H462.84V445.912H462.973V445.779H463.107V445.645H463.24V445.512H463.373V445.379H463.64V445.245H463.773V445.112H463.907V444.979H464.04V444.845H464.173V444.712H464.44V444.579H464.573V444.445H464.707V444.312H464.84V444.179H464.973V444.045H465.24V443.912H465.373V443.779H465.507V443.645H465.64V443.512H465.773V443.379H466.04V443.245H466.173V443.112H466.307V442.979H466.44V442.845H466.573V442.712H466.84V442.579H466.973V442.445H467.107V442.312H467.24V442.179H467.373V442.045H467.507V441.912H467.773V441.779H467.907V441.645H468.04V441.512H468.173V441.379H468.307V441.245H468.573V441.112H468.707V440.979H468.84V440.845H468.973V440.712H469.107V440.579H469.373V440.445H469.507V440.312H469.64V440.179H469.773V440.045H469.907V439.912H470.04V439.779H470.307V439.645H470.44V439.512H470.573V439.379H470.707V439.245H470.84V439.112H471.107V438.979H471.24V438.845H471.373V438.712H471.507V438.579H471.64V438.445H471.773V438.312H472.04V438.179H472.173V438.045H472.307V437.912H472.44V437.779H472.573V437.645H472.707V437.512H472.84V437.379H473.107V437.245H473.24V437.112H473.373V436.979H473.507V436.845H473.64V436.712H473.773V436.579H473.907V436.445H474.173V436.312H474.307V436.179H474.44V436.045H474.573V435.912H474.707V435.779H474.84V435.645H474.973V435.512H475.24V435.379H475.373V435.245H475.507V435.112H475.64V434.979H475.773V434.845H475.907V434.712H476.04V434.579H476.173V434.445H476.307V434.312H476.44V434.179H476.573V434.045H476.707V433.912H476.973V433.779H477.107V433.645H477.24V433.512H477.373V433.379H477.507V433.245H477.64V433.112H477.773V432.979H477.907V432.845H478.04V432.712H478.173V432.579H478.307V432.445H478.44V432.312H478.573V432.179H478.707V432.045H478.84V431.912H478.973V431.779H479.107V431.645H479.24V431.512H479.373V431.379H479.507V431.245H479.64V431.112H479.773V430.979H479.907V430.845H480.04V430.712H480.173V430.579H480.307V430.445H480.44V430.312H480.573V430.179H480.707V430.045H480.84V429.912H480.973V429.779H481.107V429.645H481.24V429.512H481.373V429.379H481.507V429.112H481.64V428.979H481.773V428.845H481.907V428.712H482.04V428.579H482.173V428.445H482.307V428.312H482.44V428.045H482.573V427.912H482.707V427.779H482.84V427.645H482.973V427.512H483.107V427.245H483.24V427.112H483.373V426.979H483.507V426.845H483.64V426.712H483.773V426.445H483.907V426.312H484.04V426.179H484.173V426.045H484.307V426.712H484.44V427.512H484.573V428.179H484.707V428.845H484.84V429.512H484.973V430.179H485.107V430.712H485.24V431.112H485.373V431.512H485.507V432.045H485.64V432.445H485.773V432.845H485.907V433.379H486.04V433.779H486.173V434.179H486.307V434.579H486.44V434.979H486.573V435.245H486.707V435.512H486.84V435.912H486.973V436.179H487.107V436.579H487.24V436.845H487.373V437.112H487.507V437.512H487.64V437.779H487.773V438.179H487.907V438.445H488.04V438.712H488.173V438.979H488.307V439.112H488.44V439.379H488.573V439.645H488.707V439.912H488.84V440.179H488.973V440.445H489.107V440.712H489.24V440.979H489.373V441.245H489.507V441.379H489.64V441.645H489.773V441.779H489.907V442.045H490.04V442.179H490.307V442.312H490.573V442.445H490.84V442.579H490.973V442.712H491.24V442.845H491.507V442.979H491.773V443.112H492.173V443.245H492.44V443.379H492.707V443.512H492.973V443.645H493.373V443.779H493.64V443.912H493.907V444.045H494.307V444.179H494.707V444.312H495.107V444.445H495.507V444.579H495.907V444.712H496.307V444.845H496.573V444.979H496.707V446.445H496.84V449.912H496.707V450.845H496.573V451.912H496.44V452.579H496.307V453.112H496.173V453.645H496.04V454.045H495.907V454.579H495.773V454.845H495.64V455.245H495.507V455.512H495.373V455.912H495.24V456.179H495.107V456.445H494.973V456.712H494.84V456.979H494.707V457.245H494.573V457.512H494.44V457.779H494.307V458.045H494.173V458.179H494.04V458.445H493.907V458.579H493.773V458.845H493.64V458.979H493.507V459.245H493.373V459.379H493.24V459.512H493.107V459.645H492.973V459.912H492.84V460.045H492.707V460.179H492.573V460.312H492.44V460.445H492.307V460.579H492.173V460.712H492.04V460.979H491.907V461.112H491.773V461.245H491.64V461.379H491.373V461.512H491.24V461.645H491.107V461.779H490.973V461.912H490.84V462.045H490.707V462.179H490.44V462.312H490.307V462.445H490.173V462.579H489.907V462.712H489.773V462.845H489.64V462.979H489.373V463.112H489.24V463.245H488.973V463.379H488.84V463.512H488.707V463.645H488.44V463.779H488.307V463.912H488.04V464.045H487.907V464.179H487.64V464.312H487.373V464.445H487.107V464.579H486.973V464.712H486.707V464.845H486.44V464.979H486.173V465.112H485.907V465.245H485.64V465.379H485.373V465.512H485.107V465.645H484.707V465.779H484.44V465.912H484.04V466.045H483.773V466.179H483.373V466.312H482.973V466.445H482.573V466.579H482.04V466.712H481.507V466.845H480.973V466.979H480.44V467.112H479.773V467.245H478.973V467.379H478.04V467.512H476.707V467.645H474.173V467.779" fill="url(#paint5_linear)"/>
<path d="M499.232 337.095C498.303 356.48 480.789 369.177 470.692 384.041C468.217 387.685 466.069 391.571 464.595 395.729C462.937 400.396 462.376 405.276 462.451 410.209C462.532 415.501 463.199 420.765 463.252 426.059C463.305 431.405 462.829 436.756 461.817 442.007C461.263 444.877 460.555 447.719 459.695 450.515C458.861 453.219 457.787 455.851 457.056 458.587C455.855 463.068 455.849 468.027 459.04 471.7C459.835 472.615 461.16 471.279 460.369 470.369C456.961 466.447 458.169 460.963 459.659 456.507C461.236 451.779 462.763 447.108 463.689 442.2C464.635 437.192 465.128 432.095 465.137 426.997C465.145 421.917 464.552 416.867 464.372 411.793C464.192 406.671 464.575 401.616 466.231 396.737C467.655 392.543 469.835 388.645 472.316 384.991C477.472 377.4 484 370.896 489.592 363.645C495.573 355.891 500.632 347.096 501.112 337.095C501.169 335.884 499.289 335.887 499.232 337.095" fill="#9B9C27"/>
<path d="M515.809 356.528C505.355 365.576 492.589 371.644 478.992 374.116C477.803 374.332 478.307 376.146 479.492 375.93C493.412 373.399 506.445 367.112 517.139 357.858C518.056 357.064 516.721 355.739 515.809 356.528Z" fill="#9B9C27"/>
<path d="M477.187 377.784C475.18 369.61 476.129 360.892 479.879 353.351C480.415 352.271 478.793 351.318 478.255 352.402C474.276 360.408 473.241 369.599 475.375 378.284C475.663 379.459 477.476 378.962 477.187 377.784" fill="#9B9C27"/>
<path d="M487.775 414.819C486.211 421.164 482.139 426.316 477.536 430.793C472.439 435.755 466.829 440.213 461.421 444.827C460.5 445.613 461.835 446.937 462.751 446.156C468.399 441.337 474.3 436.695 479.557 431.441C484.096 426.905 488.028 421.641 489.588 415.319C489.877 414.144 488.064 413.643 487.775 414.819Z" fill="#9B9C27"/>
<path d="M461.535 450.623C461.732 443.485 458.567 437.004 455.395 430.804C451.928 424.029 448.136 416.576 449.632 408.734C449.857 407.551 448.047 407.044 447.82 408.234C444.829 423.908 460.077 435.368 459.655 450.623C459.62 451.832 461.501 451.832 461.535 450.623" fill="#9B9C27"/>
<path d="M509.428 443.96C513.447 441.855 515.852 437.563 517.548 433.353C519.241 429.143 520.324 424.681 522.365 420.628C524.773 415.847 528.503 411.741 533.031 408.887C538.679 405.328 545.361 403.769 551.227 400.584C557.093 397.397 562.444 391.616 561.884 384.964C561.284 377.873 553.933 372.868 546.829 372.484C539.724 372.1 532.929 375.181 526.599 378.429C517.832 382.929 509.303 387.889 501.091 393.332C497.303 395.843 493.537 398.496 490.591 401.956C481.299 412.861 482.315 429.963 489.905 442.112C489.905 442.112 500.307 448.74 509.428 443.96" fill="#95C734"/>
<path d="M500.84 445.779V445.645H499.507V445.512H498.707V445.379H498.04V445.245H497.373V445.112H496.84V444.979H496.307V444.845H495.773V444.712H495.373V444.579H494.973V444.445H494.573V444.312H494.173V444.179H493.907V444.045H493.507V443.912H493.24V443.779H492.84V443.645H492.573V443.512H492.307V443.379H492.04V443.245H491.64V443.112H491.373V442.979H491.107V442.845H490.84V442.712H490.707V442.579H490.44V442.445H490.173V442.312H489.907V442.179H489.773V441.912H489.64V441.779H489.507V441.512H489.373V441.245H489.24V441.112H489.107V440.845H488.973V440.579H488.84V440.312H488.707V440.045H488.573V439.779H488.44V439.512H488.307V439.245H488.173V439.112H488.04V438.712H487.907V438.445H487.773V438.179H487.64V437.912H487.507V437.645H487.373V437.245H487.24V436.979H487.107V436.712H486.973V436.312H486.84V436.045H486.707V435.645H486.573V435.379H486.44V435.112H486.307V434.712H486.173V434.312H486.04V433.912H485.907V433.512H485.773V432.979H485.64V432.579H485.507V432.179H485.373V431.645H485.24V431.245H485.107V430.712H484.973V430.179H484.84V429.645H484.707V428.979H484.573V428.312H484.44V427.512H484.307V426.712H484.173V425.512H484.04V424.312H483.907V418.445H484.04V417.245H484.173V416.045H484.307V415.379H484.44V414.712H484.573V414.045H484.707V413.379H484.84V412.979H484.973V412.445H485.107V411.912H485.24V411.512H485.373V410.979H485.507V410.712H485.64V410.312H485.773V409.912H485.907V409.645H486.04V409.245H486.173V408.979H486.307V408.579H486.44V408.312H486.573V408.045H486.707V407.779H486.84V407.512H486.973V407.245H487.107V406.979H487.24V406.712H487.373V406.445H487.507V406.179H487.64V405.912H487.773V405.779H487.907V405.512H488.04V405.245H488.173V405.112H488.307V404.845H488.44V404.579H488.573V404.445H488.707V404.179H488.84V404.045H488.973V403.779H489.107V403.645H489.24V403.512H489.373V403.245H489.507V403.112H489.64V402.979H489.773V402.712H489.907V402.579H490.04V402.445H490.173V402.179H490.307V402.045H490.44V401.912H490.573V401.779H490.707V401.645H490.84V401.379H490.973V401.245H491.107V401.112H491.24V400.979H491.373V400.845H491.507V400.712H491.64V400.579H491.773V400.445H491.907V400.312H492.04V400.179H492.173V400.045H492.307V399.912H492.44V399.779H492.573V399.645H492.707V399.512H492.84V399.379H492.973V399.245H493.24V399.112H493.373V398.979H493.507V398.845H493.64V398.712H493.773V398.579H493.907V398.445H494.173V398.312H494.307V398.179H494.44V398.045H494.573V397.912H494.707V397.779H494.84V397.645H495.107V397.512H495.24V397.379H495.373V397.245H495.507V397.112H495.64V396.979H495.907V396.845H496.04V396.712H496.173V396.579H496.44V396.445H496.573V396.312H496.707V396.179H496.973V396.045H497.107V395.912H497.373V395.779H497.507V395.645H497.64V395.512H497.907V395.379H498.04V395.245H498.173V395.112H498.44V394.979H498.573V394.845H498.84V394.712H498.973V394.579H499.24V394.445H499.373V394.312H499.507V394.179H499.773V394.045H499.907V393.912H500.173V393.779H500.307V393.645H500.573V393.512H500.707V393.379H500.973V393.245H501.107V393.112H501.373V392.979H501.507V392.845H501.773V392.712H501.907V392.579H502.173V392.445H502.307V392.312H502.573V392.179H502.707V392.045H502.973V391.912H503.24V391.779H503.373V391.645H503.64V391.512H503.773V391.379H504.04V391.245H504.307V391.112H504.44V390.979H504.707V390.845H504.84V390.712H505.107V390.579H505.24V390.445H505.507V390.312H505.773V390.179H505.907V390.045H506.173V389.912H506.307V389.779H506.573V389.645H506.707V389.512H506.973V389.379H507.24V389.245H507.373V389.112H507.64V388.979H507.907V388.845H508.04V388.712H508.307V388.579H508.44V388.445H508.707V388.312H508.973V388.179H509.107V388.045H509.373V387.912H509.64V387.779H509.773V387.645H510.04V387.512H510.307V387.379H510.44V387.245H510.707V387.112H510.973V386.979H511.107V386.845H511.373V386.712H511.64V386.579H511.773V386.445H512.04V386.312H512.307V386.179H512.44V386.045H512.707V385.912H512.973V385.779H513.107V385.645H513.373V385.512H513.64V385.379H513.773V385.245H514.04V385.112H514.307V384.979H514.573V384.845H514.84V384.712H514.973V384.579H515.24V384.445H515.507V384.312H515.773V384.179H515.907V384.045H516.173V383.912H516.44V383.779H516.707V383.645H516.84V383.512H517.107V383.379H517.373V383.245H517.64V383.112H517.907V382.979H518.04V382.845H518.307V382.712H518.573V382.579H518.84V382.445H518.973V382.312H519.24V382.179H519.507V382.045H519.773V381.912H519.907V381.779H520.173V381.645H520.44V381.512H520.707V381.379H520.973V381.245H521.24V381.112H521.507V380.979H521.64V380.845H521.907V380.712H522.173V380.579H522.44V380.445H522.707V380.312H522.973V380.179H523.24V380.045H523.507V379.912H523.64V379.779H523.907V379.645H524.173V379.512H524.44V379.379H524.707V379.245H524.973V379.112H525.24V378.979H525.507V378.845H525.773V378.712H526.04V378.579H526.307V378.445H526.44V378.312H526.707V378.179H526.973V378.045H527.24V377.912H527.507V377.779H527.773V377.645H528.04V377.512H528.307V377.379H528.573V377.245H528.84V377.112H529.107V376.979H529.507V376.845H529.773V376.712H530.04V376.579H530.307V376.445H530.573V376.312H530.84V376.179H531.107V376.045H531.507V375.912H531.773V375.779H532.04V375.645H532.44V375.512H532.707V375.379H532.973V375.245H533.373V375.112H533.64V374.979H534.04V374.845H534.307V374.712H534.707V374.579H535.107V374.445H535.373V374.312H535.773V374.179H536.173V374.045H536.573V373.912H536.973V373.779H537.373V373.645H537.907V373.512H538.307V373.379H538.84V373.245H539.373V373.112H540.04V372.979H540.573V372.845H541.373V372.712H542.173V372.579H543.373V372.445H547.907V372.579H548.707V372.712H549.64V372.845H550.04V372.979H550.44V373.112H550.973V373.245H551.373V373.379H551.907V373.512H552.307V373.645H552.573V373.779H552.84V373.912H553.107V374.045H553.373V374.179H553.773V374.312H554.04V374.445H554.307V374.579H554.573V374.712H554.84V374.845H554.973V374.979H555.24V375.112H555.373V375.245H555.64V375.379H555.773V375.512H556.04V375.645H556.173V375.779H556.44V375.912H556.573V376.045H556.84V376.179H556.973V376.312H557.107V376.445H557.24V376.579H557.373V376.712H557.507V376.845H557.64V376.979H557.773V377.112H558.04V377.245H558.173V377.379H558.307V377.512H558.44V377.645H558.573V377.779H558.707V377.912H558.84V378.045H558.973V378.312H559.107V378.445H559.24V378.579H559.373V378.845H559.507V378.979H559.64V379.112H559.773V379.379H559.907V379.512H560.04V379.645H560.173V379.912H560.307V380.045H560.44V380.312H560.573V380.712H560.707V380.979H560.84V381.245H560.973V381.512H561.107V381.779H561.24V382.045H561.373V382.445H561.507V382.979H561.64V383.512H561.773V384.045H561.907V385.245H562.04V386.179H561.907V387.645H561.773V388.312H561.64V388.845H561.507V389.379H561.373V389.779H561.24V390.179H561.107V390.579H560.973V390.845H560.84V391.112H560.707V391.379H560.573V391.645H560.44V391.912H560.307V392.312H560.173V392.445H560.04V392.712H559.907V392.845H559.773V393.112H559.64V393.245H559.507V393.512H559.373V393.645H559.24V393.912H559.107V394.045H558.973V394.312H558.84V394.445H558.707V394.579H558.573V394.712H558.44V394.845H558.307V395.112H558.173V395.245H558.04V395.379H557.907V395.512H557.773V395.645H557.64V395.779H557.507V396.045H557.373V396.179H557.24V396.312H557.107V396.445H556.84V396.579H556.707V396.712H556.573V396.845H556.44V396.979H556.307V397.112H556.173V397.245H556.04V397.379H555.907V397.512H555.773V397.645H555.64V397.779H555.507V397.912H555.24V398.045H555.107V398.179H554.973V398.312H554.707V398.445H554.573V398.579H554.44V398.712H554.173V398.845H554.04V398.979H553.907V399.112H553.64V399.245H553.507V399.379H553.24V399.512H553.107V399.645H552.84V399.779H552.707V399.912H552.44V400.045H552.173V400.179H552.04V400.312H551.773V400.445H551.507V400.579H551.24V400.712H551.107V400.845H550.84V400.979H550.573V401.112H550.307V401.245H550.04V401.379H549.773V401.512H549.507V401.645H549.24V401.779H548.84V401.912H548.573V402.045H548.307V402.179H548.04V402.312H547.64V402.445H547.373V402.579H547.107V402.712H546.84V402.845H546.44V402.979H546.173V403.112H545.773V403.245H545.507V403.379H545.107V403.512H544.84V403.645H544.573V403.779H544.173V403.912H543.907V404.045H543.507V404.179H543.107V404.312H542.84V404.445H542.44V404.579H542.173V404.712H541.773V404.845H541.507V404.979H541.107V405.112H540.84V405.245H540.573V405.379H540.173V405.512H539.907V405.645H539.507V405.779H539.24V405.912H538.973V406.045H538.573V406.179H538.307V406.312H538.04V406.445H537.64V406.579H537.373V406.712H537.107V406.845H536.84V406.979H536.573V407.112H536.307V407.245H536.04V407.379H535.773V407.512H535.507V407.645H535.24V407.779H534.973V407.912H534.707V408.045H534.573V408.179H534.307V408.312H534.04V408.445H533.773V408.579H533.64V408.712H533.373V408.845H533.107V408.979H532.973V409.112H532.707V409.245H532.573V409.379H532.307V409.512H532.173V409.645H531.907V409.779H531.773V409.912H531.64V410.045H531.373V410.179H531.24V410.312H531.107V410.445H530.973V410.579H530.707V410.712H530.573V410.845H530.44V410.979H530.173V411.112H530.04V411.245H529.907V411.379H529.773V411.512H529.64V411.645H529.507V411.779H529.373V411.912H529.24V412.045H528.973V412.179H528.84V412.312H528.707V412.445H528.573V412.579H528.44V412.712H528.307V412.845H528.173V412.979H528.04V413.112H527.907V413.245H527.773V413.379H527.64V413.512H527.507V413.645H527.373V413.779H527.24V413.912H527.107V414.045H526.973V414.179H526.84V414.312H526.707V414.579H526.573V414.712H526.44V414.845H526.307V414.979H526.173V415.245H526.04V415.379H525.907V415.512H525.773V415.645H525.64V415.912H525.507V416.045H525.373V416.179H525.24V416.312H525.107V416.579H524.973V416.712H524.84V416.845H524.707V416.979H524.573V417.245H524.44V417.379H524.307V417.645H524.173V417.779H524.04V418.045H523.907V418.312H523.773V418.445H523.64V418.712H523.507V418.845H523.373V419.112H523.24V419.379H523.107V419.512H522.973V419.779H522.84V420.045H522.707V420.312H522.573V420.579H522.44V420.845H522.307V421.112H522.173V421.379H522.04V421.645H521.907V421.912H521.773V422.312H521.64V422.579H521.507V422.845H521.373V423.245H521.24V423.512H521.107V423.779H520.973V424.179H520.84V424.579H520.707V424.979H520.573V425.245H520.44V425.645H520.307V426.045H520.173V426.445H520.04V426.712H519.907V427.112H519.773V427.512H519.64V427.912H519.507V428.312H519.373V428.712H519.24V429.112H519.107V429.512H518.973V429.912H518.84V430.312H518.707V430.712H518.573V430.979H518.44V431.379H518.307V431.779H518.173V432.179H518.04V432.579H517.907V432.845H517.773V433.245H517.64V433.512H517.507V433.912H517.373V434.179H517.24V434.445H517.107V434.712H516.973V435.112H516.84V435.379H516.707V435.645H516.573V435.912H516.44V436.179H516.307V436.445H516.173V436.712H516.04V436.979H515.907V437.245H515.773V437.379H515.64V437.645H515.507V437.912H515.373V438.179H515.24V438.312H515.107V438.579H514.973V438.712H514.84V438.979H514.707V439.245H514.573V439.379H514.44V439.645H514.307V439.779H514.173V439.912H514.04V440.045H513.907V440.312H513.773V440.445H513.64V440.579H513.507V440.845H513.373V440.979H513.24V441.112H513.107V441.245H512.973V441.379H512.84V441.512H512.707V441.645H512.573V441.779H512.44V441.912H512.307V442.045H512.173V442.179H512.04V442.312H511.907V442.445H511.64V442.579H511.507V442.712H511.373V442.845H511.24V442.979H511.107V443.112H510.84V443.245H510.707V443.379H510.44V443.512H510.307V443.645H510.04V443.779H509.907V443.912H509.64V444.045H509.373V444.179H509.107V444.312H508.707V444.445H508.44V444.579H508.173V444.712H507.773V444.845H507.373V444.979H506.973V445.112H506.44V445.245H506.04V445.379H505.373V445.512H504.573V445.645H503.24V445.779" fill="url(#paint6_linear)"/>
<path d="M561.061 377.749C543.408 382.289 526.691 390.459 513.673 403.405C503.092 413.929 495.569 426.948 490.033 440.72C487.164 447.86 484.811 455.191 482.601 462.557C482.253 463.72 484.067 464.216 484.415 463.057C488.335 449.984 492.777 436.989 499.576 425.096C507.324 411.543 518.073 400.02 531.445 391.887C540.771 386.215 551.012 382.275 561.561 379.563C562.732 379.261 562.236 377.447 561.061 377.749Z" fill="#7CA027"/>
<path d="M514.144 376.011C508.644 385.872 501.839 395.032 497.297 405.412C492.655 416.02 491.219 427.515 491.007 439.004C490.997 439.609 491.937 439.609 491.947 439.004C492.164 427.277 493.679 415.573 498.588 404.815C503.127 394.868 509.645 386.008 514.956 376.485C515.251 375.956 514.44 375.483 514.144 376.011Z" fill="#7CA027"/>
<path d="M539.153 412.439C529.668 414.636 520.004 416.897 511.501 421.827C507.681 424.041 504.331 426.791 501.281 429.976C498.141 433.259 495.167 436.732 491.224 439.091C490.707 439.4 491.179 440.213 491.7 439.901C495.313 437.74 498.151 434.665 501.013 431.625C504.168 428.277 507.511 425.296 511.479 422.931C520.023 417.841 529.815 415.567 539.403 413.345C539.992 413.208 539.743 412.303 539.153 412.439" fill="#7CA027"/>
<path d="M502.049 417.547C492.864 431.268 487.317 446.844 482.601 462.557C482.253 463.719 484.067 464.216 484.415 463.057C489.087 447.489 494.572 432.092 503.672 418.496C504.347 417.487 502.72 416.545 502.049 417.547" fill="#7CA027"/>
<path d="M516.915 470.729H55.5333V454.887H516.915V470.729" fill="#202832"/>
<path d="M516.915 459.965H55.5333V454.887H516.915V459.965" fill="#414B56"/>
<path d="M491.533 251.533C487.967 249.753 484.288 247.885 481.767 244.797C479.244 241.711 478.199 237.04 480.397 233.715C482.22 230.96 485.697 229.828 488.971 229.384C497.156 228.275 505.733 230.395 512.459 235.185C510.823 221.512 516.765 207.173 527.595 198.668C532.756 194.615 539.132 191.807 545.693 191.969C552.255 192.131 558.908 195.651 561.769 201.559C563.581 205.303 563.78 209.616 563.601 213.772C563.248 221.983 561.541 230.132 558.571 237.795C573.501 233.728 598.651 231.389 602.557 246.363C610.428 276.531 482.969 292.167 475.048 264.892C472.96 257.704 491.533 251.533 491.533 251.533" fill="#EEF9F9"/>
<path d="M24.8505 306.651C22.4021 305.429 19.8761 304.148 18.1447 302.028C16.4135 299.908 15.6963 296.703 17.2051 294.42C18.4562 292.528 20.8437 291.751 23.0911 291.445C28.7098 290.684 34.5989 292.139 39.2161 295.429C38.0922 286.041 42.1718 276.199 49.6078 270.359C53.151 267.576 57.5281 265.648 62.0327 265.76C66.5365 265.871 71.1046 268.288 73.0687 272.343C74.3125 274.913 74.4494 277.873 74.3261 280.728C74.0833 286.364 72.9125 291.96 70.8723 297.219C81.1223 294.428 98.3894 292.821 101.071 303.101C106.473 323.813 18.9707 334.547 13.5327 315.821C12.0989 310.887 24.8505 306.651 24.8505 306.651" fill="#EEF9F9"/>
<path d="M424.208 72.0202C422.057 70.9468 419.84 69.8215 418.32 67.9602C416.799 66.0988 416.169 63.2828 417.495 61.2788C418.593 59.6175 420.689 58.9348 422.664 58.6668C427.597 57.9988 432.769 59.2761 436.824 62.1655C435.836 53.9215 439.42 45.2775 445.948 40.1482C449.06 37.7055 452.904 36.0122 456.86 36.1109C460.816 36.2082 464.827 38.3308 466.552 41.8922C467.644 44.1495 467.764 46.7495 467.656 49.2548C467.444 54.2055 466.413 59.1188 464.623 63.7375C473.624 61.2855 488.785 59.8761 491.141 68.9028C495.887 87.0908 419.045 96.5175 414.269 80.0735C413.011 75.7401 424.208 72.0202 424.208 72.0202" fill="#B0E5E9"/>
<path d="M501.8 254.773C499.005 253.379 496.124 251.917 494.149 249.499C492.173 247.081 491.356 243.423 493.077 240.817C494.504 238.66 497.228 237.773 499.793 237.427C506.203 236.557 512.921 238.216 518.189 241.971C516.907 231.261 521.561 220.029 530.045 213.368C534.087 210.193 539.081 207.993 544.22 208.121C549.359 208.248 554.571 211.005 556.811 215.632C558.229 218.565 558.387 221.943 558.245 225.199C557.969 231.628 556.632 238.012 554.305 244.013C566 240.828 585.697 238.996 588.757 250.724C594.923 274.352 495.092 286.599 488.888 265.237C487.252 259.607 501.8 254.773 501.8 254.773" fill="#B0E5E9"/>
<path d="M46.6505 24.7148C45.1707 23.9762 43.6447 23.2015 42.5985 21.9215C41.5521 20.6401 41.1187 18.7028 42.0307 17.3228C42.7865 16.1788 44.2291 15.7095 45.5874 15.5255C48.9833 15.0655 52.5417 15.9441 55.3327 17.9321C54.6531 12.2601 57.1193 6.3095 61.6119 2.7815C63.7541 1.10016 66.3989 -0.0651475 69.1213 0.00285249C71.8437 0.0695192 74.6041 1.53083 75.7911 3.9815C76.5431 5.53483 76.6261 7.32416 76.5515 9.04816C76.4041 12.4548 75.6963 15.8362 74.4635 19.0148C80.6583 17.3282 91.0931 16.3575 92.7135 22.5695C95.9791 35.0868 43.0979 41.5735 39.8103 30.2575C38.9447 27.2748 46.6505 24.7148 46.6505 24.7148" fill="#B0E5E9"/>
<path d="M375.679 300.368C375.679 301.925 374.417 303.187 372.861 303.187C371.305 303.187 370.044 301.925 370.044 300.368C370.044 298.812 371.305 297.549 372.861 297.549C374.417 297.549 375.679 298.812 375.679 300.368Z" fill="white"/>
<path d="M411.609 358.531H332.348C330.091 358.531 328.261 356.701 328.261 354.443V314.685C328.261 312.429 330.091 310.599 332.348 310.599H411.609C413.865 310.599 415.695 312.429 415.695 314.685V354.444C415.695 356.701 413.865 358.531 411.609 358.531" fill="white"/>
<path d="M360.513 322.639L361.706 317.896H362.767L360.96 324.101H360.1L358.592 319.399L357.124 324.101H356.263L354.463 317.896H355.518L356.739 322.541L358.185 317.896H359.039L360.513 322.639ZM366.426 324.216C365.585 324.216 364.9 323.941 364.373 323.39C363.845 322.836 363.581 322.096 363.581 321.171V320.976C363.581 320.36 363.698 319.811 363.931 319.33C364.168 318.844 364.497 318.466 364.918 318.194C365.342 317.919 365.801 317.781 366.294 317.781C367.101 317.781 367.728 318.047 368.175 318.578C368.622 319.11 368.846 319.871 368.846 320.861V321.303H364.642C364.658 321.914 364.835 322.409 365.176 322.788C365.52 323.163 365.956 323.35 366.483 323.35C366.858 323.35 367.175 323.273 367.435 323.121C367.695 322.968 367.923 322.765 368.118 322.513L368.766 323.017C368.246 323.816 367.466 324.216 366.426 324.216ZM366.294 318.653C365.866 318.653 365.506 318.81 365.216 319.123C364.925 319.433 364.745 319.869 364.677 320.431H367.785V320.351C367.754 319.811 367.609 319.395 367.349 319.1C367.089 318.802 366.737 318.653 366.294 318.653ZM376.823 324.101C376.762 323.979 376.712 323.761 376.674 323.447C376.181 323.96 375.592 324.216 374.908 324.216C374.296 324.216 373.793 324.044 373.4 323.7C373.01 323.352 372.815 322.912 372.815 322.381C372.815 321.735 373.059 321.234 373.549 320.878C374.042 320.519 374.734 320.339 375.625 320.339H376.657V319.852C376.657 319.481 376.546 319.186 376.324 318.968C376.103 318.747 375.776 318.636 375.344 318.636C374.965 318.636 374.648 318.731 374.392 318.923C374.135 319.114 374.007 319.345 374.007 319.616H372.941C372.941 319.307 373.05 319.009 373.268 318.722C373.489 318.431 373.788 318.202 374.162 318.034C374.541 317.865 374.956 317.781 375.407 317.781C376.122 317.781 376.682 317.961 377.087 318.32C377.492 318.676 377.703 319.167 377.718 319.794V322.65C377.718 323.22 377.791 323.673 377.936 324.009V324.101H376.823ZM375.063 323.293C375.395 323.293 375.711 323.207 376.009 323.035C376.307 322.862 376.523 322.639 376.657 322.364V321.09H375.825C374.525 321.09 373.876 321.471 373.876 322.232C373.876 322.564 373.986 322.824 374.208 323.012C374.43 323.199 374.715 323.293 375.063 323.293ZM382.38 318.848C382.22 318.821 382.046 318.808 381.859 318.808C381.163 318.808 380.691 319.104 380.442 319.697V324.101H379.381V317.896H380.413L380.431 318.613C380.778 318.058 381.272 317.781 381.91 317.781C382.117 317.781 382.273 317.808 382.38 317.862V318.848ZM385.821 324.216C384.98 324.216 384.296 323.941 383.768 323.39C383.241 322.836 382.977 322.096 382.977 321.171V320.976C382.977 320.36 383.094 319.811 383.327 319.33C383.564 318.844 383.893 318.466 384.313 318.194C384.738 317.919 385.196 317.781 385.69 317.781C386.496 317.781 387.123 318.047 387.571 318.578C388.018 319.11 388.242 319.871 388.242 320.861V321.303H384.038C384.053 321.914 384.231 322.409 384.571 322.788C384.915 323.163 385.351 323.35 385.879 323.35C386.253 323.35 386.571 323.273 386.831 323.121C387.091 322.968 387.318 322.765 387.513 322.513L388.161 323.017C387.641 323.816 386.861 324.216 385.821 324.216ZM385.69 318.653C385.261 318.653 384.902 318.81 384.611 319.123C384.321 319.433 384.141 319.869 384.072 320.431H387.181V320.351C387.15 319.811 387.005 319.395 386.745 319.1C386.485 318.802 386.133 318.653 385.69 318.653Z" fill="#19404C"/>
<path d="M361.276 335.655C361.276 337.271 361.004 338.684 360.46 339.893C359.916 341.094 359.145 342.012 358.148 342.647C357.151 343.281 355.987 343.599 354.658 343.599C353.358 343.599 352.206 343.281 351.201 342.647C350.196 342.005 349.414 341.094 348.855 339.916C348.304 338.729 348.02 337.358 348.005 335.802V334.612C348.005 333.025 348.281 331.624 348.833 330.408C349.384 329.191 350.162 328.262 351.167 327.62C352.18 326.97 353.335 326.645 354.635 326.645C355.957 326.645 357.12 326.966 358.125 327.609C359.138 328.243 359.916 329.169 360.46 330.385C361.004 331.594 361.276 333.003 361.276 334.612V335.655ZM359.111 334.589C359.111 332.633 358.718 331.133 357.933 330.09C357.147 329.04 356.048 328.515 354.635 328.515C353.26 328.515 352.176 329.04 351.382 330.09C350.597 331.133 350.193 332.583 350.17 334.442V335.655C350.17 337.551 350.567 339.043 351.36 340.131C352.161 341.211 353.26 341.751 354.658 341.751C356.063 341.751 357.151 341.242 357.921 340.222C358.692 339.194 359.089 337.725 359.111 335.813V334.589ZM366.715 336.913V343.372H364.539V326.872H370.625C372.431 326.872 373.843 327.333 374.863 328.254C375.891 329.176 376.405 330.396 376.405 331.915C376.405 333.517 375.902 334.752 374.897 335.621C373.9 336.482 372.468 336.913 370.602 336.913H366.715ZM366.715 335.133H370.625C371.788 335.133 372.68 334.861 373.299 334.317C373.919 333.766 374.229 332.973 374.229 331.938C374.229 330.955 373.919 330.17 373.299 329.58C372.68 328.991 371.83 328.685 370.75 328.662H366.715V335.133ZM388.508 335.745H381.357V341.593H389.664V343.372H379.181V326.872H389.55V328.662H381.357V333.966H388.508V335.745ZM405.053 343.372H402.866L394.559 330.657V343.372H392.372V326.872H394.559L402.889 339.644V326.872H405.053V343.372Z" fill="#19404C"/>
<path d="M355.907 313.679H388.472L372.845 301.157L355.907 313.679ZM392.043 314.931H352.103L372.877 299.577L392.043 314.931" fill="white"/>
<path d="M408.841 250.469H451.623V235.476H408.841V250.469Z" fill="#F39128"/>
<path d="M117.088 250.959H159.869V235.965H117.088V250.959" fill="#F39128"/>
<path d="M370.044 248.337H391.78V238.588H370.044V248.337Z" fill="#F39128"/>
<path d="M256.107 431.735H277.843V421.986H256.107V431.735Z" fill="#D6721A"/>
<path d="M317.392 431.735H339.129V421.986H317.392V431.735Z" fill="#D6721A"/>
<path d="M366.54 102.919H212.272V55.4255H366.54V102.919Z" fill="white"/>
<path d="M214.272 100.919H364.54V57.4255H214.272V100.919ZM368.54 104.919H210.272V53.4255H368.54V104.919Z" fill="#469EAB"/>
<path d="M257.019 72.3007C254.751 71.6487 253.098 70.8498 252.06 69.9039C251.031 68.9488 250.517 67.7733 250.517 66.3774C250.517 64.7979 251.146 63.4938 252.404 62.4653C253.672 61.4276 255.315 60.9087 257.336 60.9087C258.713 60.9087 259.939 61.175 261.014 61.7077C262.097 62.2403 262.933 62.975 263.521 63.9117C264.118 64.8484 264.416 65.8723 264.416 66.9835H261.758C261.758 65.7713 261.372 64.8208 260.6 64.1321C259.829 63.4341 258.741 63.0852 257.336 63.0852C256.032 63.0852 255.012 63.3744 254.278 63.953C253.552 64.5224 253.189 65.3167 253.189 66.3361C253.189 67.1534 253.534 67.8468 254.223 68.4162C254.921 68.9763 256.101 69.4906 257.763 69.959C259.434 70.4273 260.738 70.9462 261.675 71.5156C262.621 72.0758 263.319 72.7324 263.769 73.4854C264.228 74.2384 264.458 75.1246 264.458 76.144C264.458 77.7695 263.824 79.0735 262.557 80.0562C261.289 81.0296 259.595 81.5163 257.474 81.5163C256.096 81.5163 254.81 81.2546 253.616 80.7311C252.423 80.1985 251.5 79.473 250.848 78.5547C250.205 77.6363 249.883 76.594 249.883 75.4277H252.542C252.542 76.6399 252.987 77.5996 253.878 78.3067C254.778 79.0046 255.977 79.3536 257.474 79.3536C258.869 79.3536 259.939 79.0689 260.683 78.4996C261.427 77.9302 261.799 77.1542 261.799 76.1716C261.799 75.1889 261.455 74.4313 260.766 73.8987C260.077 73.3568 258.828 72.8242 257.019 72.3007ZM283.274 81.2408H280.616V71.9701H270.505V81.2408H267.86V61.1842H270.505V69.8074H280.616V61.1842H283.274V81.2408ZM303.4 71.8599C303.4 73.8252 303.069 75.5425 302.408 77.0118C301.747 78.472 300.81 79.5878 299.598 80.3592C298.386 81.1306 296.971 81.5163 295.355 81.5163C293.776 81.5163 292.375 81.1306 291.154 80.3592C289.932 79.5786 288.982 78.472 288.302 77.0394C287.632 75.5976 287.288 73.9308 287.269 72.039V70.5926C287.269 68.6641 287.604 66.9606 288.275 65.482C288.945 64.0035 289.891 62.874 291.112 62.0934C292.343 61.3036 293.748 60.9087 295.328 60.9087C296.935 60.9087 298.349 61.299 299.57 62.0796C300.801 62.851 301.747 63.976 302.408 65.4545C303.069 66.9238 303.4 68.6366 303.4 70.5926V71.8599ZM300.769 70.5651C300.769 68.1866 300.291 66.3637 299.336 65.0963C298.381 63.8198 297.045 63.1816 295.328 63.1816C293.656 63.1816 292.338 63.8198 291.374 65.0963C290.419 66.3637 289.928 68.1269 289.9 70.386V71.8599C289.9 74.165 290.382 75.9787 291.347 77.3011C292.32 78.6144 293.656 79.271 295.355 79.271C297.063 79.271 298.386 78.6511 299.322 77.4113C300.259 76.1624 300.741 74.3762 300.769 72.0528V70.5651ZM310.012 73.389V81.2408H307.367V61.1842H314.764C316.959 61.1842 318.676 61.7444 319.916 62.8648C321.165 63.9851 321.79 65.4683 321.79 67.3141C321.79 69.261 321.179 70.7625 319.958 71.8186C318.745 72.8655 317.005 73.389 314.737 73.389H310.012ZM310.012 71.2263H314.764C316.179 71.2263 317.262 70.8957 318.015 70.2345C318.768 69.5641 319.145 68.5998 319.145 67.3417C319.145 66.1478 318.768 65.1928 318.015 64.4765C317.262 63.7602 316.229 63.3882 314.916 63.3607H310.012V71.2263Z" fill="#19404C"/>
<defs>
<linearGradient id="paint0_linear" x1="275.575" y1="-34.851" x2="275.575" y2="422.123" gradientUnits="userSpaceOnUse">
<stop stop-color="#C7DBD8"/>
<stop offset="1" stop-color="#94D3D3"/>
</linearGradient>
<linearGradient id="paint1_linear" x1="286.224" y1="168.956" x2="286.224" y2="420.041" gradientUnits="userSpaceOnUse">
<stop stop-color="#F6F8AC"/>
<stop offset="1" stop-color="#F57D22"/>
</linearGradient>
<linearGradient id="paint2_linear" x1="87.4582" y1="345.007" x2="94.3636" y2="480.269" gradientUnits="userSpaceOnUse">
<stop stop-color="#EEF15C"/>
<stop offset="1" stop-color="#8A841C"/>
</linearGradient>
<linearGradient id="paint3_linear" x1="3.48834" y1="375.696" x2="97.0147" y2="450.03" gradientUnits="userSpaceOnUse">
<stop stop-color="#EDF156"/>
<stop offset="1" stop-color="#5B942F"/>
</linearGradient>
<linearGradient id="paint4_linear" x1="275.573" y1="-34.8486" x2="275.573" y2="422.117" gradientUnits="userSpaceOnUse">
<stop stop-color="white"/>
<stop offset="1" stop-color="white"/>
</linearGradient>
<linearGradient id="paint5_linear" x1="492.036" y1="335.413" x2="450.604" y2="502.36" gradientUnits="userSpaceOnUse">
<stop stop-color="#EEF15C"/>
<stop offset="1" stop-color="#8A841C"/>
</linearGradient>
<linearGradient id="paint6_linear" x1="565.275" y1="325.265" x2="476.318" y2="484.291" gradientUnits="userSpaceOnUse">
<stop stop-color="#EDF156"/>
<stop offset="1" stop-color="#5B942F"/>
</linearGradient>
</defs>
</svg>
